<svg width="174" height="50" viewBox="0 0 174 50" fill="none" xmlns="http://www.w3.org/2000/svg">
<path fill-rule="evenodd" clip-rule="evenodd" d="M26.491 2.03577C26.3705 2.03577 26.2624 2.11008 26.2194 2.22262L22.1246 12.9198C22.0815 13.0323 21.9735 13.1067 21.853 13.1067H12.8504C12.6465 13.1067 12.5059 12.9023 12.5788 12.7119L16.5143 2.43055C16.5872 2.24013 16.4466 2.03577 16.2427 2.03577H11.8391C11.7187 2.03577 11.6107 2.10994 11.5676 2.22233L1.83699 27.5604C1.76384 27.7508 1.90445 27.9554 2.10847 27.9554H6.51191C6.63217 27.9554 6.74004 27.8814 6.78328 27.7692L10.9433 16.9723C10.9865 16.86 11.0944 16.786 11.2146 16.786H20.2168C20.4209 16.786 20.5615 16.9909 20.4881 17.1814L16.4893 27.5601C16.4159 27.7506 16.5565 27.9554 16.7607 27.9554H21.1634C21.2837 27.9554 21.3917 27.8813 21.4348 27.7689L31.1654 2.43084C31.2386 2.24038 31.098 2.03577 30.8939 2.03577H26.491ZM83.0132 27.9554H169.682C169.802 27.9554 169.909 27.8819 169.953 27.7701L171.172 24.6396C171.246 24.4489 171.105 24.2432 170.901 24.2432H86.2285C86.0245 24.2432 85.8839 24.0388 85.9569 23.8484L94.1628 2.43063C94.2358 2.2402 94.0952 2.03577 93.8912 2.03577H89.4876C89.3673 2.03577 89.2593 2.1099 89.2162 2.22224L80.7136 24.3418C79.8924 26.51 80.7793 27.9554 83.0132 27.9554ZM42.4408 21.8557C42.3975 21.9678 42.2897 22.0418 42.1695 22.0418H38.6563C38.4521 22.0418 38.3115 21.8368 38.385 21.6462L43.3786 8.7094C43.4219 8.59726 43.5297 8.5233 43.6499 8.5233H53.5352C55.1845 8.5233 55.8604 9.19923 55.2656 10.7133L53.2649 15.9855C52.8052 17.2562 51.6156 17.7699 50.5071 17.7699H44.2177C44.0975 17.7699 43.9897 17.8439 43.9464 17.956L42.4408 21.8557ZM46.8674 10.9026C46.7472 10.9026 46.6393 10.9766 46.5961 11.0888L45.09 14.9952C45.0165 15.1858 45.1571 15.3907 45.3613 15.3907H48.4253C49.1282 15.3907 49.5338 15.1203 49.7501 14.4444L50.9513 11.2971C51.024 11.1067 50.8834 10.9026 50.6796 10.9026H46.8674ZM68.7233 10.9296C68.8449 10.9296 68.9537 10.8539 68.996 10.7399L69.6725 8.91523C69.743 8.72527 69.6025 8.5233 69.3999 8.5233H59.5168C58.192 8.5233 57.1105 9.28034 56.6238 10.524L53.055 19.8247C52.5142 21.1766 53.2442 22.0418 54.4339 22.0418H64.5326C64.6542 22.0418 64.763 21.9661 64.8053 21.852L65.4818 20.0274C65.5523 19.8374 65.4117 19.6355 65.2091 19.6355H57.6699C57.4656 19.6355 57.325 19.4304 57.3986 19.2398L58.4175 16.604C58.4608 16.492 58.5686 16.4181 58.6888 16.4181H65.4248C65.5464 16.4181 65.6552 16.3424 65.6975 16.2284L66.374 14.4037C66.4445 14.2138 66.304 14.0118 66.1014 14.0118H59.8597C59.6554 14.0118 59.5148 13.8068 59.5884 13.6163L60.5535 11.1157C60.5968 11.0035 60.7046 10.9296 60.8248 10.9296H68.7233ZM65.6121 21.6462C65.5385 21.8368 65.6791 22.0418 65.8834 22.0418H69.3964C69.5167 22.0418 69.6245 21.9677 69.6678 21.8555L71.3898 17.3884C71.433 17.2762 71.5409 17.2022 71.6611 17.2022H75.8145C76.7067 17.2022 76.7608 17.6347 76.3823 18.6081L75.2565 21.65C75.1862 21.8399 75.3268 22.0418 75.5293 22.0418H78.9927C79.1139 22.0418 79.2223 21.9667 79.265 21.8532L80.7893 17.797C81.161 16.7881 81.1156 16.04 80.0899 15.8341C80.06 15.8281 80.041 15.7972 80.0506 15.7682C80.056 15.752 80.0693 15.7397 80.0858 15.7354C80.7273 15.5681 81.4163 15.1334 81.7897 14.1199L83.0874 10.7133C83.6552 9.19923 83.0063 8.5233 81.3571 8.5233H70.877C70.7568 8.5233 70.6489 8.59726 70.6057 8.7094L65.6121 21.6462ZM72.8076 14.8229C72.6026 14.8229 72.462 14.6165 72.537 14.4257L73.8494 11.087C73.8932 10.9757 74.0005 10.9026 74.1201 10.9026H78.505C78.7078 10.9026 78.8483 11.1049 78.7775 11.2949L77.8152 13.8766C77.5719 14.4985 77.1393 14.8229 76.4634 14.8229H72.8076ZM29.5971 21.6457C29.5231 21.8364 29.6638 22.0418 29.8682 22.0418H33.3818C33.5014 22.0418 33.6088 21.9685 33.6525 21.8572L35.5341 17.0631C35.5471 17.0299 35.5661 16.9994 35.5901 16.9731L42.8682 9.01034C43.0388 8.82371 42.9064 8.52332 42.6536 8.52332H38.9585C38.8739 8.52332 38.7935 8.56018 38.7382 8.62429L34.8208 13.1704C34.6651 13.3511 34.3702 13.2779 34.317 13.0454L33.3344 8.74929C33.3041 8.61707 33.1865 8.52332 33.0509 8.52332H29.536C29.3415 8.52332 29.2018 8.71064 29.2573 8.8971L31.5239 16.512C31.5423 16.5738 31.5396 16.64 31.5163 16.7001L29.5971 21.6457ZM126.184 21.8533C126.141 21.9667 126.033 22.0418 125.911 22.0418H122.433C122.23 22.0418 122.09 21.8389 122.161 21.6488L127.08 8.53899C127.123 8.42552 127.232 8.35035 127.353 8.35035H130.66C130.784 8.35035 130.895 8.42966 130.935 8.54758L133.45 15.9465C133.537 16.2047 133.9 16.211 133.997 15.9561L136.809 8.53808C136.852 8.42508 136.96 8.35035 137.081 8.35035H140.532C140.735 8.35035 140.876 8.55321 140.805 8.74334L135.885 21.8531C135.842 21.9666 135.734 22.0418 135.613 22.0418H132.306C132.181 22.0418 132.071 21.9625 132.031 21.8445L129.517 14.449C129.429 14.1905 129.066 14.1847 128.97 14.4403L126.184 21.8533ZM139.727 21.4601H151.017C151.144 21.4601 151.257 21.3769 151.295 21.2548L152.035 18.8486C152.092 18.6615 151.953 18.4722 151.757 18.4722H143.598C143.394 18.4722 143.253 18.2675 143.326 18.0771L145.901 11.3799C145.944 11.2675 146.052 11.1934 146.172 11.1934H150.768C150.982 11.1934 151.123 11.4176 151.03 11.6107L150.088 13.5609C149.994 13.754 150.135 13.9782 150.35 13.9782H153.832C153.948 13.9782 154.053 13.9097 154.099 13.8037L155.53 10.5241C155.909 9.49666 155.179 8.49629 154.124 8.49629H144.864C143.539 8.49629 142.458 9.28036 141.971 10.497L138.321 19.4324C137.915 20.4868 138.672 21.4601 139.727 21.4601ZM153.308 21.6462C153.235 21.8368 153.375 22.0418 153.579 22.0418H157.099C157.216 22.0418 157.322 21.9718 157.367 21.8641L159.59 16.6023C159.635 16.4947 159.741 16.4247 159.858 16.4247H165.149C165.357 16.4247 165.498 16.636 165.418 16.8276L163.408 21.6389C163.328 21.8305 163.469 22.0418 163.677 22.0418H167.177C167.298 22.0418 167.405 21.9678 167.449 21.8557L172.442 8.91885C172.516 8.72831 172.375 8.5233 172.171 8.5233H168.664C168.54 8.5233 168.431 8.60076 168.39 8.71672L166.574 13.825C166.533 13.9409 166.423 14.0184 166.3 14.0184H160.994C160.794 14.0184 160.653 13.8205 160.72 13.6314L162.374 8.91033C162.441 8.72122 162.3 8.5233 162.1 8.5233H158.573C158.453 8.5233 158.345 8.59726 158.302 8.7094L153.308 21.6462ZM108.181 22.0418H117.914C119.185 22.0418 120.32 21.2577 120.78 20.0681L125.14 8.92005C125.215 8.72933 125.074 8.5233 124.869 8.5233H121.361C121.239 8.5233 121.131 8.59927 121.088 8.71361L117.457 18.5727C117.415 18.6871 117.306 18.763 117.184 18.763H112.042C111.841 18.763 111.7 18.5631 111.769 18.3736L115.178 8.91272C115.246 8.72319 115.106 8.5233 114.905 8.5233H111.382C111.261 8.5233 111.153 8.59752 111.11 8.70994L106.856 19.7977C106.315 21.1495 106.856 22.0418 108.181 22.0418ZM95.2671 21.8555C95.2239 21.9677 95.116 22.0418 94.9957 22.0418H91.4021C91.1977 22.0418 91.0571 21.8365 91.1309 21.6459L95.2494 11.0107C95.8983 9.38849 97.115 8.5233 98.8453 8.5233H109.615C109.819 8.5233 109.959 8.72831 109.886 8.91885L104.892 21.8557C104.849 21.9678 104.741 22.0418 104.621 22.0418H101.107C100.903 22.0418 100.763 21.8369 100.836 21.6464L102.208 18.0841C102.281 17.8936 102.141 17.6888 101.937 17.6888H97.0713C96.951 17.6888 96.8431 17.7629 96.7999 17.8751L95.2671 21.8555ZM99.6121 10.9026C99.4921 10.9026 99.3845 10.9762 99.341 11.088L97.8639 14.8863C97.7897 15.077 97.9304 15.2825 98.1349 15.2825H103.106C103.227 15.2825 103.335 15.2082 103.378 15.0957L104.832 11.2973C104.905 11.1069 104.764 10.9026 104.56 10.9026H99.6121Z" fill="black"/>
<mask id="path-2-outside-1_489_5876" maskUnits="userSpaceOnUse" x="-0.412109" y="-0.418335" width="173" height="28" fill="black">
<rect fill="white" x="-0.412109" y="-0.418335" width="173" height="28"/>
<path fill-rule="evenodd" clip-rule="evenodd" d="M25.0917 0.675092L20.8896 11.6526H11.2642L15.4265 0.779057C15.4629 0.683847 15.3926 0.581665 15.2907 0.581665H10.5757C10.5155 0.581665 10.4615 0.618753 10.44 0.674945L0.597692 26.3038C0.56112 26.399 0.631422 26.5013 0.733436 26.5013H5.44828C5.50841 26.5013 5.56234 26.4643 5.58396 26.4082L9.8516 15.3319H19.477L15.2497 26.3037C15.213 26.3989 15.2833 26.5013 15.3854 26.5013H20.0998C20.16 26.5013 20.214 26.4643 20.2356 26.4081L30.0778 0.779204C30.1144 0.683971 30.0441 0.581665 29.9421 0.581665H25.2275C25.1672 0.581665 25.1132 0.618822 25.0917 0.675092ZM168.617 26.5014C168.677 26.5014 168.731 26.4646 168.753 26.4087L170.085 22.9873C170.122 22.892 170.052 22.7892 169.95 22.7892H84.642L93.0748 0.779108C93.1113 0.683892 93.041 0.581675 92.939 0.581675H88.2241C88.1639 0.581675 88.11 0.618742 88.0884 0.674912L79.55 22.8877C78.7287 25.0559 79.6157 26.5014 81.8496 26.5014H168.617ZM32.3173 20.5877C32.3771 20.5877 32.4308 20.5511 32.4527 20.4954L34.3901 15.5588L42.1497 7.06921H37.6616L33.2816 12.1522L32.119 7.06921H27.9824L30.3887 15.1532L28.3566 20.3897C28.3197 20.485 28.39 20.5877 28.4922 20.5877H32.3173ZM41.2416 20.4946C41.2199 20.5507 41.166 20.5877 41.1059 20.5877H37.281C37.1789 20.5877 37.1086 20.4852 37.1454 20.3899L42.2872 7.06921H52.3719C54.0212 7.06921 54.6971 7.74513 54.1023 9.2592L52.1015 14.5314C51.6419 15.8021 50.4523 16.3158 49.3438 16.3158H42.8549L41.2416 20.4946ZM45.5045 9.44846L43.7742 13.9366H47.2619C47.9649 13.9366 48.3705 13.6662 48.5868 12.9903L49.9386 9.44846H45.5045ZM68.5819 7.26517C68.6171 7.1702 68.5468 7.06921 68.4455 7.06921H58.3535C57.0287 7.06921 55.9472 7.82624 55.4605 9.06994L51.8917 18.3706C51.3509 19.7225 52.0809 20.5877 53.2705 20.5877H63.4704C63.5312 20.5877 63.5856 20.5498 63.6068 20.4928L64.3912 18.3773C64.4264 18.2824 64.3561 18.1814 64.2548 18.1814H56.0824L57.3261 14.964H64.3627C64.4235 14.964 64.4779 14.9261 64.499 14.8691L65.2834 12.7537C65.3186 12.6587 65.2483 12.5577 65.147 12.5577H58.2724L59.462 9.4755H67.6612C67.722 9.4755 67.7764 9.43766 67.7975 9.38064L68.5819 7.26517ZM68.3329 20.5877C68.393 20.5877 68.447 20.5507 68.4686 20.4946L70.2982 15.7481H74.6512C75.5434 15.7481 75.5975 16.1806 75.219 17.154L74.0207 20.3918C73.9856 20.4868 74.0558 20.5877 74.1571 20.5877H77.9301C77.9907 20.5877 78.0449 20.5501 78.0662 20.4934L79.626 16.3429C80.0045 15.3155 79.9504 14.5584 78.8689 14.3692L78.896 14.2881C79.5449 14.1258 80.2478 13.6933 80.6263 12.6659L81.9241 9.2592C82.4919 7.74513 81.843 7.06921 80.1938 7.06921H69.5142L64.3724 20.3899C64.3356 20.4852 64.4059 20.5877 64.508 20.5877H68.3329ZM71.2175 13.3688L72.7586 9.44846H77.7604L76.6519 12.4225C76.4086 13.0444 75.976 13.3688 75.3001 13.3688H71.2175ZM124.985 20.4935C124.963 20.5502 124.909 20.5877 124.849 20.5877H121.06C120.958 20.5877 120.888 20.4863 120.924 20.3912L125.952 6.99059C125.974 6.93385 126.028 6.89627 126.089 6.89627H129.6C129.663 6.89627 129.718 6.93593 129.738 6.99489L132.547 15.2587L135.681 6.99014C135.702 6.93364 135.757 6.89627 135.817 6.89627H139.579C139.68 6.89627 139.75 6.9977 139.715 7.09277L134.686 20.4934C134.665 20.5501 134.611 20.5877 134.55 20.5877H131.038C130.976 20.5877 130.921 20.548 130.901 20.4891L128.092 12.2253L124.985 20.4935ZM149.961 20.0061C150.024 20.0061 150.081 19.9644 150.1 19.9034L150.929 17.2063C150.958 17.1128 150.888 17.0181 150.79 17.0181H142.223C142.121 17.0181 142.05 16.9158 142.087 16.8206L144.773 9.83255C144.795 9.77638 144.849 9.73932 144.909 9.73932H149.836C149.943 9.73932 150.014 9.85142 149.967 9.94798L148.824 12.3155C148.777 12.412 148.847 12.5241 148.954 12.5241H152.764C152.822 12.5241 152.874 12.4899 152.897 12.4369L154.367 9.06998C154.745 8.04258 154.015 7.04221 152.961 7.04221H143.7C142.376 7.04221 141.294 7.82628 140.807 9.04294L137.157 17.9783C136.752 19.0327 137.509 20.0061 138.563 20.0061H149.961ZM156.032 20.5877C156.091 20.5877 156.143 20.5527 156.166 20.4989L158.501 14.9706H164.422L162.161 20.3862C162.121 20.482 162.191 20.5877 162.295 20.5877H166.114C166.174 20.5877 166.228 20.5507 166.249 20.4946L171.355 7.267C171.392 7.17173 171.322 7.06923 171.219 7.06923H167.397C167.336 7.06923 167.281 7.10796 167.26 7.16594L165.342 12.5643H159.42L161.279 7.26274C161.312 7.16818 161.242 7.06923 161.142 7.06923H157.31C157.25 7.06923 157.196 7.1062 157.174 7.16227L152.068 20.3899C152.031 20.4852 152.102 20.5877 152.204 20.5877H156.032ZM107.017 20.5877H116.751C118.021 20.5877 119.157 19.8036 119.617 18.614L124.054 7.2676C124.091 7.17224 124.021 7.06923 123.919 7.06923H120.096C120.035 7.06923 119.981 7.10721 119.96 7.16438L116.224 17.3089H110.465L114.085 7.26394C114.119 7.16917 114.049 7.06923 113.948 7.06923H110.118C110.058 7.06923 110.004 7.10633 109.983 7.16255L105.692 18.3436C105.152 19.6955 105.692 20.5877 107.017 20.5877ZM94.0678 20.4945C94.0461 20.5507 93.9922 20.5877 93.9321 20.5877H90.0264C89.9242 20.5877 89.8539 20.4851 89.8908 20.3898L94.086 9.55662C94.7348 7.93441 95.9515 7.06923 97.6819 7.06923H108.875L103.693 20.4946C103.671 20.5507 103.617 20.5877 103.557 20.5877H99.7322C99.6301 20.5877 99.5598 20.4853 99.5965 20.39L101.197 16.2347H95.7082L94.0678 20.4945ZM98.2496 9.44847L96.5463 13.8285H102.143L103.819 9.44847H98.2496Z"/>
</mask>
<path fill-rule="evenodd" clip-rule="evenodd" d="M25.0917 0.675092L20.8896 11.6526H11.2642L15.4265 0.779057C15.4629 0.683847 15.3926 0.581665 15.2907 0.581665H10.5757C10.5155 0.581665 10.4615 0.618753 10.44 0.674945L0.597692 26.3038C0.56112 26.399 0.631422 26.5013 0.733436 26.5013H5.44828C5.50841 26.5013 5.56234 26.4643 5.58396 26.4082L9.8516 15.3319H19.477L15.2497 26.3037C15.213 26.3989 15.2833 26.5013 15.3854 26.5013H20.0998C20.16 26.5013 20.214 26.4643 20.2356 26.4081L30.0778 0.779204C30.1144 0.683971 30.0441 0.581665 29.9421 0.581665H25.2275C25.1672 0.581665 25.1132 0.618822 25.0917 0.675092ZM168.617 26.5014C168.677 26.5014 168.731 26.4646 168.753 26.4087L170.085 22.9873C170.122 22.892 170.052 22.7892 169.95 22.7892H84.642L93.0748 0.779108C93.1113 0.683892 93.041 0.581675 92.939 0.581675H88.2241C88.1639 0.581675 88.11 0.618742 88.0884 0.674912L79.55 22.8877C78.7287 25.0559 79.6157 26.5014 81.8496 26.5014H168.617ZM32.3173 20.5877C32.3771 20.5877 32.4308 20.5511 32.4527 20.4954L34.3901 15.5588L42.1497 7.06921H37.6616L33.2816 12.1522L32.119 7.06921H27.9824L30.3887 15.1532L28.3566 20.3897C28.3197 20.485 28.39 20.5877 28.4922 20.5877H32.3173ZM41.2416 20.4946C41.2199 20.5507 41.166 20.5877 41.1059 20.5877H37.281C37.1789 20.5877 37.1086 20.4852 37.1454 20.3899L42.2872 7.06921H52.3719C54.0212 7.06921 54.6971 7.74513 54.1023 9.2592L52.1015 14.5314C51.6419 15.8021 50.4523 16.3158 49.3438 16.3158H42.8549L41.2416 20.4946ZM45.5045 9.44846L43.7742 13.9366H47.2619C47.9649 13.9366 48.3705 13.6662 48.5868 12.9903L49.9386 9.44846H45.5045ZM68.5819 7.26517C68.6171 7.1702 68.5468 7.06921 68.4455 7.06921H58.3535C57.0287 7.06921 55.9472 7.82624 55.4605 9.06994L51.8917 18.3706C51.3509 19.7225 52.0809 20.5877 53.2705 20.5877H63.4704C63.5312 20.5877 63.5856 20.5498 63.6068 20.4928L64.3912 18.3773C64.4264 18.2824 64.3561 18.1814 64.2548 18.1814H56.0824L57.3261 14.964H64.3627C64.4235 14.964 64.4779 14.9261 64.499 14.8691L65.2834 12.7537C65.3186 12.6587 65.2483 12.5577 65.147 12.5577H58.2724L59.462 9.4755H67.6612C67.722 9.4755 67.7764 9.43766 67.7975 9.38064L68.5819 7.26517ZM68.3329 20.5877C68.393 20.5877 68.447 20.5507 68.4686 20.4946L70.2982 15.7481H74.6512C75.5434 15.7481 75.5975 16.1806 75.219 17.154L74.0207 20.3918C73.9856 20.4868 74.0558 20.5877 74.1571 20.5877H77.9301C77.9907 20.5877 78.0449 20.5501 78.0662 20.4934L79.626 16.3429C80.0045 15.3155 79.9504 14.5584 78.8689 14.3692L78.896 14.2881C79.5449 14.1258 80.2478 13.6933 80.6263 12.6659L81.9241 9.2592C82.4919 7.74513 81.843 7.06921 80.1938 7.06921H69.5142L64.3724 20.3899C64.3356 20.4852 64.4059 20.5877 64.508 20.5877H68.3329ZM71.2175 13.3688L72.7586 9.44846H77.7604L76.6519 12.4225C76.4086 13.0444 75.976 13.3688 75.3001 13.3688H71.2175ZM124.985 20.4935C124.963 20.5502 124.909 20.5877 124.849 20.5877H121.06C120.958 20.5877 120.888 20.4863 120.924 20.3912L125.952 6.99059C125.974 6.93385 126.028 6.89627 126.089 6.89627H129.6C129.663 6.89627 129.718 6.93593 129.738 6.99489L132.547 15.2587L135.681 6.99014C135.702 6.93364 135.757 6.89627 135.817 6.89627H139.579C139.68 6.89627 139.75 6.9977 139.715 7.09277L134.686 20.4934C134.665 20.5501 134.611 20.5877 134.55 20.5877H131.038C130.976 20.5877 130.921 20.548 130.901 20.4891L128.092 12.2253L124.985 20.4935ZM149.961 20.0061C150.024 20.0061 150.081 19.9644 150.1 19.9034L150.929 17.2063C150.958 17.1128 150.888 17.0181 150.79 17.0181H142.223C142.121 17.0181 142.05 16.9158 142.087 16.8206L144.773 9.83255C144.795 9.77638 144.849 9.73932 144.909 9.73932H149.836C149.943 9.73932 150.014 9.85142 149.967 9.94798L148.824 12.3155C148.777 12.412 148.847 12.5241 148.954 12.5241H152.764C152.822 12.5241 152.874 12.4899 152.897 12.4369L154.367 9.06998C154.745 8.04258 154.015 7.04221 152.961 7.04221H143.7C142.376 7.04221 141.294 7.82628 140.807 9.04294L137.157 17.9783C136.752 19.0327 137.509 20.0061 138.563 20.0061H149.961ZM156.032 20.5877C156.091 20.5877 156.143 20.5527 156.166 20.4989L158.501 14.9706H164.422L162.161 20.3862C162.121 20.482 162.191 20.5877 162.295 20.5877H166.114C166.174 20.5877 166.228 20.5507 166.249 20.4946L171.355 7.267C171.392 7.17173 171.322 7.06923 171.219 7.06923H167.397C167.336 7.06923 167.281 7.10796 167.26 7.16594L165.342 12.5643H159.42L161.279 7.26274C161.312 7.16818 161.242 7.06923 161.142 7.06923H157.31C157.25 7.06923 157.196 7.1062 157.174 7.16227L152.068 20.3899C152.031 20.4852 152.102 20.5877 152.204 20.5877H156.032ZM107.017 20.5877H116.751C118.021 20.5877 119.157 19.8036 119.617 18.614L124.054 7.2676C124.091 7.17224 124.021 7.06923 123.919 7.06923H120.096C120.035 7.06923 119.981 7.10721 119.96 7.16438L116.224 17.3089H110.465L114.085 7.26394C114.119 7.16917 114.049 7.06923 113.948 7.06923H110.118C110.058 7.06923 110.004 7.10633 109.983 7.16255L105.692 18.3436C105.152 19.6955 105.692 20.5877 107.017 20.5877ZM94.0678 20.4945C94.0461 20.5507 93.9922 20.5877 93.9321 20.5877H90.0264C89.9242 20.5877 89.8539 20.4851 89.8908 20.3898L94.086 9.55662C94.7348 7.93441 95.9515 7.06923 97.6819 7.06923H108.875L103.693 20.4946C103.671 20.5507 103.617 20.5877 103.557 20.5877H99.7322C99.6301 20.5877 99.5598 20.4853 99.5965 20.39L101.197 16.2347H95.7082L94.0678 20.4945ZM98.2496 9.44847L96.5463 13.8285H102.143L103.819 9.44847H98.2496Z" fill="#E6FF55"/>
<path d="M20.8896 11.6526V11.9434H21.0897L21.1612 11.7565L20.8896 11.6526ZM25.0917 0.675092L24.8201 0.571124L24.8201 0.571126L25.0917 0.675092ZM11.2642 11.6526L10.9926 11.5486L10.8415 11.9434H11.2642V11.6526ZM15.4265 0.779057L15.1549 0.675091V0.675091L15.4265 0.779057ZM10.44 0.674945L10.1685 0.570685V0.570686L10.44 0.674945ZM0.597692 26.3038L0.869179 26.4081H0.869179L0.597692 26.3038ZM5.58396 26.4082L5.31259 26.3037L5.31259 26.3037L5.58396 26.4082ZM9.8516 15.3319V15.0411H9.65199L9.58023 15.2273L9.8516 15.3319ZM19.477 15.3319L19.7484 15.4365L19.9007 15.0411H19.477V15.3319ZM15.2497 26.3037L15.5211 26.4082H15.5211L15.2497 26.3037ZM20.2356 26.4081L20.5071 26.5123H20.5071L20.2356 26.4081ZM30.0778 0.779204L30.3493 0.883463V0.883462L30.0778 0.779204ZM168.753 26.4087L168.482 26.3032L168.482 26.3032L168.753 26.4087ZM170.085 22.9873L170.356 23.0928L170.356 23.0928L170.085 22.9873ZM84.642 22.7892L84.3704 22.6851L84.2191 23.08H84.642V22.7892ZM93.0748 0.779108L92.8032 0.675053V0.67506L93.0748 0.779108ZM88.0884 0.674912L87.8169 0.570567V0.570568L88.0884 0.674912ZM79.55 22.8877L79.2785 22.7834L79.278 22.7847L79.55 22.8877ZM32.4527 20.4954L32.7234 20.6016V20.6016L32.4527 20.4954ZM34.3901 15.5588L34.1755 15.3626L34.1391 15.4024L34.1194 15.4526L34.3901 15.5588ZM42.1497 7.06921L42.3644 7.26542L42.8095 6.77839H42.1497V7.06921ZM37.6616 7.06921V6.77839H37.5283L37.4413 6.87937L37.6616 7.06921ZM33.2816 12.1522L32.9981 12.217L33.1264 12.7778L33.5019 12.342L33.2816 12.1522ZM32.119 7.06921L32.4025 7.00437L32.3509 6.77839H32.119V7.06921ZM27.9824 7.06921V6.77839H27.5924L27.7037 7.15218L27.9824 7.06921ZM30.3887 15.1532L30.6598 15.2585L30.6958 15.1657L30.6674 15.0703L30.3887 15.1532ZM28.3566 20.3897L28.0855 20.2844L28.0855 20.2844L28.3566 20.3897ZM41.2416 20.4946L40.9703 20.3899V20.3899L41.2416 20.4946ZM37.1454 20.3899L37.4167 20.4946L37.1454 20.3899ZM42.2872 7.06921V6.77839H42.0877L42.0158 6.96449L42.2872 7.06921ZM54.1023 9.2592L53.8316 9.15285L53.8304 9.15602L54.1023 9.2592ZM52.1015 14.5314L51.8296 14.4282L51.8281 14.4325L52.1015 14.5314ZM42.8549 16.3158V16.025H42.6555L42.5836 16.2111L42.8549 16.3158ZM43.7742 13.9366L43.5028 13.832L43.3504 14.2274H43.7742V13.9366ZM45.5045 9.44846V9.15764H45.305L45.2332 9.34384L45.5045 9.44846ZM48.5868 12.9903L48.315 12.8866L48.3122 12.8941L48.3098 12.9017L48.5868 12.9903ZM49.9386 9.44846L50.2103 9.55216L50.3609 9.15764H49.9386V9.44846ZM68.5819 7.26517L68.3092 7.16407V7.16407L68.5819 7.26517ZM55.4605 9.06994L55.1897 8.96397L55.189 8.96576L55.4605 9.06994ZM51.8917 18.3706L52.1617 18.4787L52.1632 18.4748L51.8917 18.3706ZM63.6068 20.4928L63.3341 20.3917V20.3917L63.6068 20.4928ZM64.3912 18.3773L64.1185 18.2762V18.2762L64.3912 18.3773ZM56.0824 18.1814L55.8111 18.0765L55.6582 18.4722H56.0824V18.1814ZM57.3261 14.964V14.6732H57.1267L57.0548 14.8591L57.3261 14.964ZM64.499 14.8691L64.2263 14.768L64.499 14.8691ZM65.2834 12.7537L65.0107 12.6526V12.6526L65.2834 12.7537ZM58.2724 12.5577L58.0011 12.453L57.8484 12.8485H58.2724V12.5577ZM59.462 9.4755V9.18468H59.2625L59.1907 9.37078L59.462 9.4755ZM67.7975 9.38064L68.0702 9.48175V9.48174L67.7975 9.38064ZM68.4686 20.4946L68.7399 20.5992L68.7399 20.5992L68.4686 20.4946ZM70.2982 15.7481V15.4572H70.0987L70.0269 15.6435L70.2982 15.7481ZM75.219 17.154L74.9479 17.0486L74.9462 17.053L75.219 17.154ZM74.0207 20.3918L74.2935 20.4927L74.2935 20.4927L74.0207 20.3918ZM78.0662 20.4934L77.794 20.3911V20.3911L78.0662 20.4934ZM79.626 16.3429L79.8982 16.4452L79.8989 16.4434L79.626 16.3429ZM78.8689 14.3692L78.593 14.2772L78.4863 14.5975L78.8188 14.6556L78.8689 14.3692ZM78.896 14.2881L78.8254 14.0059L78.6706 14.0447L78.6201 14.1961L78.896 14.2881ZM80.6263 12.6659L80.3546 12.5623L80.3535 12.5653L80.6263 12.6659ZM81.9241 9.2592L82.1959 9.36273L82.1964 9.36131L81.9241 9.2592ZM69.5142 7.06921V6.77839H69.3147L69.2429 6.96449L69.5142 7.06921ZM64.3724 20.3899L64.6437 20.4946L64.3724 20.3899ZM72.7586 9.44846V9.15764H72.5604L72.4879 9.34206L72.7586 9.44846ZM71.2175 13.3688L70.9468 13.2624L70.7907 13.6596H71.2175V13.3688ZM77.7604 9.44846L78.0329 9.55003L78.1792 9.15764H77.7604V9.44846ZM76.6519 12.4225L76.9228 12.5285L76.9244 12.5241L76.6519 12.4225ZM124.985 20.4935L124.712 20.3911V20.3911L124.985 20.4935ZM120.924 20.3912L121.196 20.4934V20.4934L120.924 20.3912ZM125.952 6.99059L126.225 7.09277L126.225 7.09274L125.952 6.99059ZM129.738 6.99489L130.013 6.9013L130.013 6.90126L129.738 6.99489ZM132.547 15.2587L132.271 15.3523L132.532 16.1185L132.818 15.3618L132.547 15.2587ZM135.681 6.99014L135.409 6.88703L135.409 6.88705L135.681 6.99014ZM139.715 7.09277L139.442 6.99059V6.99059L139.715 7.09277ZM134.686 20.4934L134.414 20.3912L134.414 20.3912L134.686 20.4934ZM130.901 20.4891L131.176 20.3955L131.176 20.3955L130.901 20.4891ZM128.092 12.2253L128.367 12.1317L128.106 11.362L127.82 12.123L128.092 12.2253ZM150.1 19.9034L149.822 19.8179L149.822 19.8179L150.1 19.9034ZM150.929 17.2063L151.207 17.2918L151.207 17.2918L150.929 17.2063ZM142.087 16.8206L141.815 16.7162V16.7162L142.087 16.8206ZM144.773 9.83255L145.045 9.9369V9.9369L144.773 9.83255ZM149.967 9.94798L149.705 9.82147L149.705 9.82148L149.967 9.94798ZM148.824 12.3155L149.085 12.442L149.085 12.442L148.824 12.3155ZM152.897 12.4369L152.631 12.3205L152.631 12.3206L152.897 12.4369ZM154.367 9.06998L154.633 9.18631L154.637 9.1785L154.64 9.17052L154.367 9.06998ZM140.807 9.04294L141.077 9.15292L141.077 9.15095L140.807 9.04294ZM137.157 17.9783L136.888 17.8683L136.886 17.8739L137.157 17.9783ZM156.166 20.4989L155.898 20.3857L155.898 20.3857L156.166 20.4989ZM158.501 14.9706V14.6798H158.308L158.233 14.8574L158.501 14.9706ZM164.422 14.9706L164.691 15.0827L164.859 14.6798H164.422V14.9706ZM162.161 20.3862L162.429 20.4983V20.4983L162.161 20.3862ZM166.249 20.4946L166.521 20.5994L166.521 20.5994L166.249 20.4946ZM171.355 7.267L171.626 7.37172L171.355 7.267ZM167.26 7.16594L166.986 7.06851V7.06853L167.26 7.16594ZM165.342 12.5643V12.8551H165.547L165.616 12.6617L165.342 12.5643ZM159.42 12.5643L159.146 12.4681L159.01 12.8551H159.42V12.5643ZM161.279 7.26274L161.553 7.35894V7.35893L161.279 7.26274ZM157.174 7.16227L156.903 7.05751L156.903 7.05755L157.174 7.16227ZM152.068 20.3899L152.34 20.4946L152.068 20.3899ZM119.617 18.614L119.346 18.5081L119.345 18.5092L119.617 18.614ZM124.054 7.2676L123.783 7.16166L123.783 7.16167L124.054 7.2676ZM119.96 7.16438L119.687 7.06387V7.06387L119.96 7.16438ZM116.224 17.3089V17.5998H116.427L116.497 17.4095L116.224 17.3089ZM110.465 17.3089L110.191 17.2103L110.051 17.5998H110.465V17.3089ZM114.085 7.26394L114.358 7.36253V7.36253L114.085 7.26394ZM109.983 7.16255L110.254 7.26673V7.26673L109.983 7.16255ZM105.692 18.3436L105.963 18.4516L105.964 18.4478L105.692 18.3436ZM94.0678 20.4945L94.3391 20.599V20.599L94.0678 20.4945ZM89.8908 20.3898L90.162 20.4948V20.4948L89.8908 20.3898ZM94.086 9.55662L93.8159 9.44861L93.8148 9.4516L94.086 9.55662ZM108.875 7.06923L109.146 7.17395L109.299 6.77841H108.875V7.06923ZM103.693 20.4946L103.964 20.5994L103.964 20.5994L103.693 20.4946ZM99.5965 20.39L99.8679 20.4945V20.4945L99.5965 20.39ZM101.197 16.2347L101.468 16.3393L101.62 15.9439H101.197V16.2347ZM95.7082 16.2347V15.9439H95.5085L95.4368 16.1302L95.7082 16.2347ZM96.5463 13.8285L96.2753 13.723L96.1212 14.1193H96.5463V13.8285ZM98.2496 9.44847V9.15766H98.0507L97.9786 9.34307L98.2496 9.44847ZM102.143 13.8285V14.1193H102.343L102.415 13.9324L102.143 13.8285ZM103.819 9.44847L104.091 9.55242L104.242 9.15766H103.819V9.44847ZM21.1612 11.7565L25.3633 0.779057L24.8201 0.571126L20.618 11.5486L21.1612 11.7565ZM11.2642 11.9434H20.8896V11.3617H11.2642V11.9434ZM15.1549 0.675091L10.9926 11.5486L11.5358 11.7565L15.6981 0.883023L15.1549 0.675091ZM15.2907 0.872483C15.1887 0.872483 15.1184 0.770303 15.1549 0.675091L15.6981 0.883024C15.8074 0.597392 15.5965 0.290847 15.2907 0.290847V0.872483ZM10.5757 0.872483H15.2907V0.290847H10.5757V0.872483ZM10.7114 0.779205C10.6899 0.835396 10.6359 0.872483 10.5757 0.872483V0.290847C10.3951 0.290847 10.2332 0.40211 10.1685 0.570685L10.7114 0.779205ZM0.869179 26.4081L10.7114 0.779204L10.1685 0.570686L0.326205 26.1995L0.869179 26.4081ZM0.733436 26.2105C0.835448 26.2105 0.905753 26.3128 0.869179 26.4081L0.326205 26.1995C0.216487 26.4852 0.427397 26.7922 0.733436 26.7922V26.2105ZM5.44828 26.2105H0.733436V26.7922H5.44828V26.2105ZM5.31259 26.3037C5.33421 26.2475 5.38814 26.2105 5.44828 26.2105V26.7922C5.62868 26.7922 5.79047 26.6811 5.85534 26.5128L5.31259 26.3037ZM9.58023 15.2273L5.31259 26.3037L5.85533 26.5128L10.123 15.4365L9.58023 15.2273ZM19.477 15.0411H9.8516V15.6227H19.477V15.0411ZM15.5211 26.4082L19.7484 15.4365L19.2057 15.2273L14.9783 26.1991L15.5211 26.4082ZM15.3854 26.2105C15.4874 26.2105 15.5578 26.313 15.5211 26.4082L14.9783 26.1991C14.8682 26.4849 15.0791 26.7922 15.3854 26.7922V26.2105ZM20.0998 26.2105H15.3854V26.7922H20.0998V26.2105ZM19.9641 26.3038C19.9857 26.2476 20.0396 26.2105 20.0998 26.2105V26.7922C20.2804 26.7922 20.4423 26.6809 20.5071 26.5123L19.9641 26.3038ZM29.8064 0.674945L19.9641 26.3038L20.5071 26.5123L30.3493 0.883463L29.8064 0.674945ZM29.9421 0.872483C29.8401 0.872483 29.7698 0.770178 29.8064 0.674946L30.3493 0.883462C30.459 0.597764 30.2481 0.290847 29.9421 0.290847V0.872483ZM25.2275 0.872483H29.9421V0.290847H25.2275V0.872483ZM25.3633 0.779059C25.3418 0.835325 25.2877 0.872483 25.2275 0.872483V0.290847C25.0467 0.290847 24.8847 0.40232 24.8201 0.571124L25.3633 0.779059ZM168.482 26.3032C168.504 26.2473 168.558 26.2105 168.617 26.2105V26.7922C168.797 26.7922 168.959 26.6818 169.024 26.5142L168.482 26.3032ZM169.814 22.8818L168.482 26.3032L169.024 26.5142L170.356 23.0928L169.814 22.8818ZM169.95 23.08C169.847 23.08 169.777 22.9771 169.814 22.8818L170.356 23.0928C170.468 22.8069 170.257 22.4983 169.95 22.4983V23.08ZM84.642 23.08H169.95V22.4983H84.642V23.08ZM92.8032 0.67506L84.3704 22.6851L84.9135 22.8932L93.3464 0.883156L92.8032 0.67506ZM92.939 0.872494C92.8371 0.872494 92.7668 0.77027 92.8032 0.675053L93.3464 0.883163C93.4558 0.597514 93.2449 0.290857 92.939 0.290857V0.872494ZM88.2241 0.872494H92.939V0.290857H88.2241V0.872494ZM88.3598 0.779256C88.3382 0.83543 88.2843 0.872494 88.2241 0.872494V0.290857C88.0436 0.290857 87.8817 0.402054 87.8169 0.570567L88.3598 0.779256ZM79.8215 22.9921L88.3598 0.779256L87.8169 0.570568L79.2786 22.7834L79.8215 22.9921ZM81.8496 26.2105C80.7898 26.2105 80.1259 25.8697 79.8002 25.3526C79.4701 24.8286 79.4278 24.0312 79.822 22.9907L79.278 22.7847C78.8509 23.9124 78.8415 24.9218 79.308 25.6626C79.779 26.4103 80.6755 26.7922 81.8496 26.7922V26.2105ZM168.617 26.2105H81.8496V26.7922H168.617V26.2105ZM32.182 20.3891C32.2038 20.3335 32.2575 20.2969 32.3173 20.2969V20.8785C32.4967 20.8785 32.6578 20.7686 32.7234 20.6016L32.182 20.3891ZM34.1194 15.4526L32.182 20.3891L32.7234 20.6016L34.6609 15.6651L34.1194 15.4526ZM41.9351 6.87301L34.1755 15.3626L34.6048 15.755L42.3644 7.26542L41.9351 6.87301ZM37.6616 7.36003H42.1497V6.77839H37.6616V7.36003ZM33.5019 12.342L37.8819 7.25905L37.4413 6.87937L33.0613 11.9623L33.5019 12.342ZM31.8355 7.13406L32.9981 12.217L33.5651 12.0873L32.4025 7.00437L31.8355 7.13406ZM27.9824 7.36003H32.119V6.77839H27.9824V7.36003ZM30.6674 15.0703L28.2611 6.98625L27.7037 7.15218L30.11 15.2362L30.6674 15.0703ZM28.6278 20.4949L30.6598 15.2585L30.1176 15.048L28.0855 20.2844L28.6278 20.4949ZM28.4922 20.2969C28.5944 20.2969 28.6647 20.3996 28.6278 20.4949L28.0855 20.2844C27.9746 20.5704 28.1855 20.8785 28.4922 20.8785V20.2969ZM32.3173 20.2969H28.4922V20.8785H32.3173V20.2969ZM41.1059 20.8785C41.2862 20.8785 41.448 20.7676 41.5129 20.5994L40.9703 20.3899C40.9919 20.3338 41.0458 20.2968 41.1059 20.2968V20.8785ZM37.281 20.8785H41.1059V20.2968H37.281V20.8785ZM36.8741 20.2852C36.7637 20.571 36.9747 20.8785 37.281 20.8785V20.2968C37.3831 20.2968 37.4535 20.3993 37.4167 20.4946L36.8741 20.2852ZM42.0158 6.96449L36.8741 20.2852L37.4167 20.4946L42.5585 7.17394L42.0158 6.96449ZM52.3719 6.77839H42.2872V7.36003H52.3719V6.77839ZM54.373 9.36554C54.6832 8.57595 54.7068 7.89237 54.3013 7.40943C53.9125 6.94636 53.2134 6.77839 52.3719 6.77839V7.36003C53.1797 7.36003 53.6431 7.53003 53.8559 7.78343C54.052 8.01697 54.1162 8.42839 53.8316 9.15286L54.373 9.36554ZM52.3734 14.6346L54.3742 9.36238L53.8304 9.15602L51.8296 14.4282L52.3734 14.6346ZM49.3438 16.6067C50.5323 16.6067 51.8609 16.0516 52.375 14.6303L51.8281 14.4325C51.4229 15.5527 50.3723 16.025 49.3438 16.025V16.6067ZM42.8549 16.6067H49.3438V16.025H42.8549V16.6067ZM41.5129 20.5994L43.1262 16.4206L42.5836 16.2111L40.9703 20.3899L41.5129 20.5994ZM44.0455 14.0412L45.7759 9.55308L45.2332 9.34384L43.5028 13.832L44.0455 14.0412ZM47.2619 13.6458H43.7742V14.2274H47.2619V13.6458ZM48.3098 12.9017C48.2141 13.2005 48.0883 13.3744 47.9396 13.479C47.7892 13.5848 47.5782 13.6458 47.2619 13.6458V14.2274C47.6486 14.2274 47.9919 14.1532 48.2741 13.9548C48.558 13.7552 48.7431 13.456 48.8637 13.0789L48.3098 12.9017ZM49.6669 9.34476L48.315 12.8866L48.8585 13.094L50.2103 9.55216L49.6669 9.34476ZM45.5045 9.73928H49.9386V9.15764H45.5045V9.73928ZM68.4455 7.36003C68.3442 7.36003 68.274 7.25904 68.3092 7.16407L68.8546 7.36628C68.9602 7.08135 68.7495 6.77839 68.4455 6.77839V7.36003ZM58.3535 7.36003H68.4455V6.77839H58.3535V7.36003ZM55.7314 9.17592C56.1757 8.04032 57.152 7.36003 58.3535 7.36003V6.77839C56.9054 6.77839 55.7187 7.61217 55.1897 8.96397L55.7314 9.17592ZM52.1632 18.4748L55.732 9.17413L55.189 8.96576L51.6201 18.2665L52.1632 18.4748ZM53.2705 20.2968C52.7426 20.2968 52.367 20.1066 52.1722 19.8219C51.9795 19.5401 51.9153 19.0946 52.1617 18.4786L51.6216 18.2626C51.3273 18.9985 51.3577 19.6615 51.6922 20.1503C52.0246 20.6361 52.6088 20.8785 53.2705 20.8785V20.2968ZM63.4704 20.2968H53.2705V20.8785H63.4704V20.2968ZM63.3341 20.3917C63.3552 20.3347 63.4096 20.2968 63.4704 20.2968V20.8785C63.6529 20.8785 63.816 20.765 63.8795 20.5939L63.3341 20.3917ZM64.1185 18.2762L63.3341 20.3917L63.8795 20.5939L64.6638 18.4784L64.1185 18.2762ZM64.2548 18.4722C64.1535 18.4722 64.0833 18.3712 64.1185 18.2762L64.6638 18.4784C64.7695 18.1935 64.5587 17.8906 64.2548 17.8906V18.4722ZM56.0824 18.4722H64.2548V17.8906H56.0824V18.4722ZM57.0548 14.8591L55.8111 18.0765L56.3536 18.2862L57.5973 15.0688L57.0548 14.8591ZM64.3627 14.6732H57.3261V15.2548H64.3627V14.6732ZM64.2263 14.768C64.2475 14.711 64.3018 14.6732 64.3627 14.6732V15.2548C64.5451 15.2548 64.7082 15.1413 64.7717 14.9702L64.2263 14.768ZM65.0107 12.6526L64.2263 14.768L64.7717 14.9702L65.5561 12.8548L65.0107 12.6526ZM65.147 12.8485C65.0457 12.8485 64.9755 12.7475 65.0107 12.6526L65.5561 12.8548C65.6617 12.5698 65.4509 12.2669 65.147 12.2669V12.8485ZM58.2724 12.8485H65.147V12.2669H58.2724V12.8485ZM59.1907 9.37078L58.0011 12.453L58.5437 12.6624L59.7333 9.58021L59.1907 9.37078ZM67.6612 9.18468H59.462V9.76631H67.6612V9.18468ZM67.5248 9.27953C67.546 9.22252 67.6003 9.18468 67.6612 9.18468V9.76631C67.8436 9.76631 68.0067 9.6528 68.0702 9.48175L67.5248 9.27953ZM68.3092 7.16407L67.5248 9.27954L68.0702 9.48174L68.8546 7.36628L68.3092 7.16407ZM68.1972 20.3899C68.2189 20.3339 68.2728 20.2968 68.3329 20.2968V20.8785C68.5133 20.8785 68.6751 20.7675 68.7399 20.5992L68.1972 20.3899ZM70.0269 15.6435L68.1972 20.39L68.7399 20.5992L70.5696 15.8527L70.0269 15.6435ZM74.6512 15.4572H70.2982V16.0389H74.6512V15.4572ZM75.49 17.2594C75.5872 17.0096 75.6619 16.7813 75.701 16.5788C75.7394 16.3795 75.7492 16.1765 75.6871 15.9928C75.6198 15.7939 75.4796 15.651 75.2883 15.5654C75.1097 15.4855 74.8919 15.4572 74.6512 15.4572V16.0389C74.8566 16.0389 74.9801 16.0647 75.0508 16.0963C75.1087 16.1223 75.1257 16.1483 75.1361 16.1792C75.1517 16.2254 75.1599 16.313 75.1298 16.4686C75.1005 16.6209 75.04 16.8117 74.9479 17.0486L75.49 17.2594ZM74.2935 20.4927L75.4917 17.2549L74.9462 17.053L73.748 20.2909L74.2935 20.4927ZM74.1571 20.2968C74.2583 20.2968 74.3286 20.3978 74.2935 20.4927L73.748 20.2908C73.6425 20.5758 73.8533 20.8785 74.1571 20.8785V20.2968ZM77.9301 20.2968H74.1571V20.8785H77.9301V20.2968ZM77.794 20.3911C77.8153 20.3344 77.8695 20.2968 77.9301 20.2968V20.8785C78.1118 20.8785 78.2745 20.7658 78.3385 20.5957L77.794 20.3911ZM79.3537 16.2406L77.794 20.3911L78.3385 20.5957L79.8982 16.4452L79.3537 16.2406ZM78.8188 14.6556C79.2907 14.7382 79.4563 14.9229 79.5162 15.1245C79.589 15.3698 79.5387 15.7384 79.3531 16.2423L79.8989 16.4434C80.0917 15.9199 80.2037 15.3963 80.0737 14.9589C79.9309 14.4779 79.5286 14.1894 78.9191 14.0827L78.8188 14.6556ZM78.6201 14.1961L78.593 14.2772L79.1448 14.4611L79.1719 14.38L78.6201 14.1961ZM80.3535 12.5653C80.0126 13.4904 79.3942 13.8637 78.8254 14.0059L78.9665 14.5702C79.6956 14.3879 80.483 13.8961 80.8992 12.7664L80.3535 12.5653ZM81.6524 9.15567L80.3546 12.5623L80.8981 12.7694L82.1959 9.36273L81.6524 9.15567ZM80.1938 7.36003C81.0014 7.36003 81.4572 7.52997 81.6666 7.78219C81.8616 8.01715 81.9242 8.43078 81.6518 9.15709L82.1964 9.36131C82.4918 8.57356 82.5138 7.89219 82.1141 7.41067C81.7287 6.94641 81.0353 6.77839 80.1938 6.77839V7.36003ZM69.5142 7.36003H80.1938V6.77839H69.5142V7.36003ZM64.6437 20.4946L69.7855 7.17394L69.2429 6.96449L64.1011 20.2852L64.6437 20.4946ZM64.508 20.2968C64.6102 20.2968 64.6805 20.3993 64.6437 20.4946L64.1011 20.2852C63.9908 20.571 64.2017 20.8785 64.508 20.8785V20.2968ZM68.3329 20.2968H64.508V20.8785H68.3329V20.2968ZM72.4879 9.34206L70.9468 13.2624L71.4882 13.4752L73.0293 9.55486L72.4879 9.34206ZM77.7604 9.15764H72.7586V9.73928H77.7604V9.15764ZM76.9244 12.5241L78.0329 9.55003L77.4879 9.34689L76.3794 12.3209L76.9244 12.5241ZM75.3001 13.6596C75.6861 13.6596 76.0254 13.5662 76.3069 13.3657C76.5871 13.1662 76.7861 12.8777 76.9227 12.5285L76.3811 12.3165C76.2744 12.5891 76.1354 12.7738 75.9695 12.892C75.8049 13.0092 75.59 13.078 75.3001 13.078V13.6596ZM71.2175 13.6596H75.3001V13.078H71.2175V13.6596ZM124.849 20.8785C125.03 20.8785 125.193 20.7659 125.257 20.5958L124.712 20.3911C124.734 20.3344 124.788 20.2969 124.849 20.2969V20.8785ZM121.06 20.8785H124.849V20.2969H121.06V20.8785ZM120.652 20.289C120.544 20.5742 120.755 20.8785 121.06 20.8785V20.2969C121.161 20.2969 121.232 20.3983 121.196 20.4934L120.652 20.289ZM125.68 6.88842L120.652 20.289L121.196 20.4934L126.225 7.09277L125.68 6.88842ZM126.089 6.60545C125.907 6.60545 125.744 6.71819 125.68 6.88844L126.225 7.09274C126.203 7.14952 126.149 7.18709 126.089 7.18709V6.60545ZM129.6 6.60545H126.089V7.18709H129.6V6.60545ZM130.013 6.90126C129.953 6.72443 129.787 6.60545 129.6 6.60545V7.18709C129.538 7.18709 129.483 7.14742 129.463 7.08852L130.013 6.90126ZM132.822 15.1651L130.013 6.9013L129.463 7.08847L132.271 15.3523L132.822 15.1651ZM135.409 6.88705L132.275 15.1556L132.818 15.3618L135.953 7.09322L135.409 6.88705ZM135.817 6.60545C135.636 6.60545 135.473 6.71756 135.409 6.88703L135.953 7.09324C135.932 7.14971 135.877 7.18709 135.817 7.18709V6.60545ZM139.579 6.60545H135.817V7.18709H139.579V6.60545ZM139.987 7.19494C140.094 6.90973 139.883 6.60545 139.579 6.60545V7.18709C139.477 7.18709 139.407 7.08567 139.442 6.99059L139.987 7.19494ZM134.958 20.5956L139.987 7.19494L139.442 6.99059L134.414 20.3912L134.958 20.5956ZM134.55 20.8785C134.732 20.8785 134.895 20.7658 134.958 20.5955L134.414 20.3912C134.435 20.3345 134.489 20.2969 134.55 20.2969V20.8785ZM131.038 20.8785H134.55V20.2969H131.038V20.8785ZM130.625 20.5826C130.685 20.7596 130.852 20.8785 131.038 20.8785V20.2969C131.101 20.2969 131.156 20.3365 131.176 20.3955L130.625 20.5826ZM127.817 12.3189L130.625 20.5827L131.176 20.3955L128.367 12.1317L127.817 12.3189ZM125.257 20.5958L128.364 12.3276L127.82 12.123L124.712 20.3911L125.257 20.5958ZM149.822 19.8179C149.84 19.7569 149.897 19.7153 149.961 19.7153V20.2969C150.152 20.2969 150.321 20.172 150.378 19.9889L149.822 19.8179ZM150.651 17.1208L149.822 19.8179L150.377 19.9889L151.207 17.2918L150.651 17.1208ZM150.79 17.309C150.692 17.309 150.623 17.2143 150.651 17.1208L151.207 17.2918C151.294 17.0113 151.084 16.7273 150.79 16.7273V17.309ZM142.223 17.309H150.79V16.7273H142.223V17.309ZM141.815 16.7162C141.706 17.0019 141.917 17.309 142.223 17.309V16.7273C142.325 16.7273 142.395 16.8297 142.358 16.9249L141.815 16.7162ZM144.502 9.72821L141.815 16.7162L142.358 16.9249L145.045 9.9369L144.502 9.72821ZM144.909 9.4485C144.728 9.4485 144.566 9.55968 144.502 9.72821L145.045 9.9369C145.023 9.99308 144.969 10.0301 144.909 10.0301V9.4485ZM149.836 9.4485H144.909V10.0301H149.836V9.4485ZM150.229 10.0745C150.369 9.78479 150.158 9.4485 149.836 9.4485V10.0301C149.729 10.0301 149.659 9.91806 149.705 9.82147L150.229 10.0745ZM149.085 12.442L150.229 10.0745L149.705 9.82148L148.562 12.189L149.085 12.442ZM148.954 12.2333C149.062 12.2333 149.132 12.3454 149.085 12.442L148.562 12.189C148.422 12.4786 148.633 12.8149 148.954 12.8149V12.2333ZM152.764 12.2333H148.954V12.8149H152.764V12.2333ZM152.631 12.3206C152.654 12.2675 152.706 12.2333 152.764 12.2333V12.8149C152.938 12.8149 153.095 12.7122 153.164 12.5532L152.631 12.3206ZM154.1 8.95365L152.631 12.3205L153.164 12.5532L154.633 9.18631L154.1 8.95365ZM152.961 7.33303C153.817 7.33303 154.401 8.13534 154.094 8.96944L154.64 9.17052C155.089 7.94982 154.214 6.75139 152.961 6.75139V7.33303ZM143.7 7.33303H152.961V6.75139H143.7V7.33303ZM141.077 9.15095C141.523 8.03765 142.502 7.33303 143.7 7.33303V6.75139C142.249 6.75139 141.065 7.61492 140.537 8.93494L141.077 9.15095ZM137.427 18.0883L141.077 9.15292L140.538 8.93297L136.888 17.8683L137.427 18.0883ZM138.563 19.7153C137.697 19.7153 137.102 18.9323 137.429 18.0827L136.886 17.8739C136.402 19.1332 137.321 20.2969 138.563 20.2969V19.7153ZM149.961 19.7153H138.563V20.2969H149.961V19.7153ZM155.898 20.3857C155.921 20.3319 155.974 20.2969 156.032 20.2969V20.8785C156.207 20.8785 156.366 20.7735 156.434 20.612L155.898 20.3857ZM158.233 14.8574L155.898 20.3857L156.434 20.612L158.769 15.0838L158.233 14.8574ZM164.422 14.6798H158.501V15.2614H164.422V14.6798ZM162.429 20.4983L164.691 15.0827L164.154 14.8585L161.892 20.2742L162.429 20.4983ZM162.295 20.2969C162.399 20.2969 162.469 20.4025 162.429 20.4983L161.892 20.2742C161.772 20.5616 161.984 20.8785 162.295 20.8785V20.2969ZM166.114 20.2969H162.295V20.8785H166.114V20.2969ZM165.978 20.3899C166 20.3339 166.053 20.2969 166.114 20.2969V20.8785C166.294 20.8785 166.456 20.7676 166.521 20.5994L165.978 20.3899ZM171.084 7.16227L165.978 20.3899L166.521 20.5994L171.626 7.37172L171.084 7.16227ZM171.219 7.36005C171.117 7.36005 171.047 7.25757 171.084 7.16227L171.626 7.37172C171.737 7.08589 171.526 6.77841 171.219 6.77841V7.36005ZM167.397 7.36005H171.219V6.77841H167.397V7.36005ZM167.534 7.26336C167.514 7.32132 167.459 7.36005 167.397 7.36005V6.77841C167.213 6.77841 167.048 6.89459 166.986 7.06851L167.534 7.26336ZM165.616 12.6617L167.534 7.26334L166.986 7.06853L165.068 12.4669L165.616 12.6617ZM159.42 12.8551H165.342V12.2735H159.42V12.8551ZM161.004 7.16653L159.146 12.4681L159.695 12.6605L161.553 7.35894L161.004 7.16653ZM161.142 7.36005C161.041 7.36005 160.971 7.26109 161.004 7.16654L161.553 7.35893C161.653 7.07528 161.442 6.77841 161.142 6.77841V7.36005ZM157.31 7.36005H161.142V6.77841H157.31V7.36005ZM157.445 7.26704C157.424 7.32307 157.37 7.36005 157.31 7.36005V6.77841C157.129 6.77841 156.968 6.88934 156.903 7.05751L157.445 7.26704ZM152.34 20.4946L157.445 7.267L156.903 7.05755L151.797 20.2852L152.34 20.4946ZM152.204 20.2969C152.306 20.2969 152.376 20.3993 152.34 20.4946L151.797 20.2852C151.687 20.571 151.898 20.8785 152.204 20.8785V20.2969ZM156.032 20.2969H152.204V20.8785H156.032V20.2969ZM116.751 20.2969H107.017V20.8785H116.751V20.2969ZM119.345 18.5092C118.929 19.5878 117.9 20.2969 116.751 20.2969V20.8785C118.143 20.8785 119.385 20.0195 119.888 18.7188L119.345 18.5092ZM123.783 7.16167L119.346 18.5081L119.887 18.7199L124.325 7.37353L123.783 7.16167ZM123.919 7.36005C123.816 7.36005 123.746 7.25703 123.783 7.16166L124.325 7.37354C124.437 7.08745 124.226 6.77841 123.919 6.77841V7.36005ZM120.096 7.36005H123.919V6.77841H120.096V7.36005ZM120.233 7.26489C120.212 7.32206 120.157 7.36005 120.096 7.36005V6.77841C119.914 6.77841 119.75 6.89236 119.687 7.06387L120.233 7.26489ZM116.497 17.4095L120.233 7.26489L119.687 7.06387L115.951 17.2084L116.497 17.4095ZM110.465 17.5998H116.224V17.0181H110.465V17.5998ZM113.811 7.16534L110.191 17.2103L110.738 17.4075L114.358 7.36253L113.811 7.16534ZM113.948 7.36005C113.847 7.36005 113.777 7.26011 113.811 7.16534L114.358 7.36253C114.461 7.07823 114.25 6.77841 113.948 6.77841V7.36005ZM110.118 7.36005H113.948V6.77841H110.118V7.36005ZM110.254 7.26673C110.233 7.32294 110.179 7.36005 110.118 7.36005V6.77841C109.938 6.77841 109.776 6.88973 109.711 7.05837L110.254 7.26673ZM105.964 18.4478L110.254 7.26673L109.711 7.05837L105.421 18.2394L105.964 18.4478ZM107.017 20.2969C106.416 20.2969 106.068 20.097 105.905 19.8239C105.737 19.5415 105.709 19.0853 105.963 18.4516L105.422 18.2356C105.135 18.9538 105.107 19.6196 105.405 20.1213C105.709 20.6323 106.294 20.8785 107.017 20.8785V20.2969ZM93.9321 20.8785C94.1125 20.8785 94.2743 20.7674 94.3391 20.599L93.7964 20.39C93.818 20.3339 93.8719 20.2969 93.9321 20.2969V20.8785ZM90.0264 20.8785H93.9321V20.2969H90.0264V20.8785ZM89.6196 20.2847C89.5089 20.5706 89.7198 20.8785 90.0264 20.8785V20.2969C90.1285 20.2969 90.1989 20.3995 90.162 20.4948L89.6196 20.2847ZM93.8148 9.4516L89.6196 20.2847L90.162 20.4948L94.3572 9.66164L93.8148 9.4516ZM97.6819 6.77841C96.7666 6.77841 95.9696 7.00793 95.3121 7.46597C94.6554 7.92348 94.1572 8.59539 93.8159 9.44862L94.356 9.66463C94.6636 8.89564 95.0982 8.32385 95.6446 7.94322C96.1902 7.56312 96.8668 7.36005 97.6819 7.36005V6.77841ZM108.875 6.77841H97.6819V7.36005H108.875V6.77841ZM103.964 20.5994L109.146 7.17395L108.604 6.9645L103.422 20.3899L103.964 20.5994ZM103.557 20.8785C103.738 20.8785 103.899 20.7676 103.964 20.5994L103.422 20.3899C103.443 20.3338 103.497 20.2969 103.557 20.2969V20.8785ZM99.7322 20.8785H103.557V20.2969H99.7322V20.8785ZM99.3251 20.2855C99.2151 20.5713 99.426 20.8785 99.7322 20.8785V20.2969C99.8343 20.2969 99.9046 20.3993 99.8679 20.4945L99.3251 20.2855ZM100.925 16.1302L99.3251 20.2855L99.8679 20.4945L101.468 16.3393L100.925 16.1302ZM95.7082 16.5256H101.197V15.9439H95.7082V16.5256ZM94.3391 20.599L95.9796 16.3393L95.4368 16.1302L93.7964 20.39L94.3391 20.599ZM96.8174 13.9339L98.5207 9.55388L97.9786 9.34307L96.2753 13.723L96.8174 13.9339ZM102.143 13.5376H96.5463V14.1193H102.143V13.5376ZM103.548 9.34453L101.871 13.7245L102.415 13.9324L104.091 9.55242L103.548 9.34453ZM98.2496 9.73929H103.819V9.15766H98.2496V9.73929Z" fill="black" mask="url(#path-2-outside-1_489_5876)"/>
<g opacity="0.5">
<path d="M80.0176 45.6098C79.634 45.6098 79.2899 45.5083 78.9853 45.3052C78.692 45.0909 78.4833 44.775 78.3592 44.3576C78.2464 43.9289 78.2633 43.3986 78.41 42.7669L80.3053 34.6273C80.3617 34.4242 80.3617 34.2832 80.3053 34.2042C80.2602 34.1252 80.1586 34.0801 80.0007 34.0688L79.493 34.0181C79.3238 34.0068 79.2505 33.9335 79.273 33.7981C79.2956 33.6965 79.3746 33.6345 79.5099 33.6119C79.9161 33.5442 80.2771 33.4653 80.593 33.375C80.9088 33.2735 81.1627 33.1438 81.3545 32.9858C81.4447 32.9181 81.5293 32.8843 81.6083 32.8843C81.7437 32.8843 81.7944 32.9689 81.7606 33.1381L80.2207 39.7886C80.2094 39.8675 80.2263 39.9126 80.2714 39.9239C80.3166 39.9352 80.356 39.907 80.3899 39.8393C81.0104 38.6548 81.5632 37.8425 82.0483 37.4025C82.5447 36.9513 83.0072 36.7256 83.4359 36.7256C83.8533 36.7256 84.1805 36.9005 84.4174 37.2502C84.6656 37.5999 84.7897 38.1132 84.7897 38.7901C84.7897 39.4332 84.6938 40.0819 84.502 40.7362C84.3215 41.3792 84.0677 41.9941 83.7405 42.5807C83.4246 43.1674 83.058 43.6863 82.6405 44.1376C82.2344 44.5888 81.8057 44.9498 81.3545 45.2206C80.9032 45.4801 80.4576 45.6098 80.0176 45.6098ZM80.0684 45.1867C80.3617 45.1867 80.6719 45.057 80.9991 44.7975C81.3263 44.5268 81.6421 44.1714 81.9467 43.7314C82.2626 43.2802 82.5447 42.7781 82.7929 42.2254C83.041 41.6613 83.2385 41.0859 83.3851 40.4993C83.5318 39.9014 83.6051 39.326 83.6051 38.7732C83.6051 38.3445 83.56 38.0456 83.4697 37.8763C83.3795 37.6958 83.2215 37.6056 82.9959 37.6056C82.7477 37.6056 82.4657 37.7579 82.1498 38.0625C81.8339 38.3671 81.5124 38.7732 81.1852 39.2809C80.8581 39.7773 80.5535 40.3188 80.2714 40.9054C79.9894 41.4921 79.7638 42.0731 79.5945 42.6484C79.4253 43.2125 79.3407 43.7145 79.3407 44.1545C79.3407 44.8427 79.5833 45.1867 80.0684 45.1867Z" fill="white"/>
<path d="M83.8702 49.0958C83.4415 49.0958 83.1087 48.983 82.8718 48.7573C82.6349 48.543 82.5164 48.2779 82.5164 47.962C82.5164 47.7251 82.5785 47.5446 82.7026 47.4205C82.8266 47.3077 82.962 47.2513 83.1087 47.2513C83.323 47.2513 83.4753 47.3077 83.5656 47.4205C83.6558 47.5333 83.7235 47.663 83.7687 47.8097C83.8138 47.9676 83.8871 48.103 83.9886 48.2158C84.0789 48.3286 84.2312 48.385 84.4455 48.385C84.863 48.385 85.2747 48.2158 85.6809 47.8774C86.087 47.5502 86.4198 47.0933 86.6793 46.5067C86.9388 45.9313 87.0516 45.2826 87.0177 44.5606L86.7639 38.4855C86.7526 38.1922 86.7018 37.9892 86.6116 37.8763C86.5213 37.7522 86.4085 37.6902 86.2731 37.6902C86.025 37.6902 85.788 37.8425 85.5624 38.1471C85.3368 38.4404 85.1506 39.0045 85.004 39.8393C84.9701 39.986 84.8968 40.0593 84.784 40.0593C84.626 40.0593 84.564 39.9578 84.5978 39.7547C84.7332 38.9763 84.9194 38.3671 85.1563 37.9271C85.4045 37.4871 85.6639 37.1769 85.9347 36.9964C86.2167 36.8159 86.4762 36.7256 86.7131 36.7256C87.0629 36.7256 87.3393 36.8497 87.5423 37.0979C87.7454 37.3348 87.8582 37.7466 87.8808 38.3332L88.1177 44.8314C88.1177 44.9103 88.1402 44.9611 88.1854 44.9837C88.2418 44.995 88.2925 44.9668 88.3377 44.8991C88.7325 44.3463 89.0879 43.7766 89.4038 43.1899C89.7309 42.592 89.9904 42.0054 90.1822 41.43C90.374 40.8547 90.4699 40.3244 90.4699 39.8393C90.4699 39.3655 90.4191 38.9932 90.3176 38.7225C90.216 38.4404 90.1089 38.2035 89.996 38.0117C89.8945 37.8199 89.8437 37.6112 89.8437 37.3856C89.8437 36.9456 90.0355 36.7256 90.4191 36.7256C90.9606 36.7256 91.2314 37.3235 91.2314 38.5194C91.2314 39.1737 91.1185 39.8901 90.8929 40.6685C90.6673 41.4356 90.357 42.2197 89.9622 43.0207C89.5786 43.8104 89.133 44.5663 88.6253 45.2883C88.129 46.0103 87.6044 46.659 87.0516 47.2343C86.5101 47.8097 85.9629 48.261 85.4101 48.5881C84.8686 48.9266 84.3553 49.0958 83.8702 49.0958Z" fill="white"/>
</g>
<path d="M115.007 46.0918C114.853 46.0918 114.776 46.0352 114.776 45.9221C114.776 45.8296 114.843 45.7679 114.976 45.7371L115.331 45.6754C115.681 45.6137 115.855 45.4132 115.855 45.0739V36.0061C115.855 35.7902 115.819 35.6462 115.747 35.5743C115.686 35.5023 115.547 35.4457 115.331 35.4046L114.976 35.3429C114.843 35.3121 114.776 35.2504 114.776 35.1579C114.776 35.0448 114.853 34.9882 115.007 34.9882H118.122C118.924 34.9882 119.618 35.2247 120.204 35.6976C120.79 36.1603 121.243 36.8131 121.561 37.6562C121.88 38.4992 122.039 39.4759 122.039 40.5863C122.039 41.7069 121.87 42.6785 121.531 43.5009C121.202 44.3234 120.734 44.9608 120.127 45.4132C119.521 45.8656 118.801 46.0918 117.968 46.0918H115.007ZM118.03 45.6908C118.945 45.6908 119.639 45.2539 120.112 44.38C120.595 43.5061 120.837 42.2415 120.837 40.5863C120.837 38.9413 120.605 37.6664 120.143 36.7617C119.69 35.8467 119.017 35.3892 118.122 35.3892C117.341 35.3892 116.95 35.7645 116.95 36.515V44.565C116.95 44.9763 117.033 45.2693 117.197 45.4441C117.372 45.6085 117.649 45.6908 118.03 45.6908Z" fill="white"/>
<path d="M124.727 39.2137C125.149 38.4941 125.657 38.1342 126.254 38.1342C126.593 38.1342 126.845 38.237 127.009 38.4427C127.174 38.638 127.256 38.8591 127.256 39.1058C127.256 39.3011 127.205 39.4605 127.102 39.5839C127.009 39.7072 126.86 39.7689 126.655 39.7689C126.49 39.7689 126.367 39.7329 126.285 39.661C126.213 39.5787 126.151 39.4862 126.1 39.3834C126.058 39.2806 126.007 39.1932 125.945 39.1212C125.884 39.039 125.781 38.9978 125.637 38.9978C125.452 38.9978 125.277 39.1109 125.113 39.3371C124.948 39.553 124.809 39.846 124.696 40.2161C124.593 40.5863 124.542 41.0078 124.542 41.4807V45.0585C124.542 45.2744 124.573 45.4286 124.634 45.5212C124.706 45.6137 124.85 45.6702 125.066 45.6908L125.483 45.7371C125.596 45.7576 125.652 45.8142 125.652 45.9067C125.652 46.0301 125.575 46.0918 125.421 46.0918H122.815C122.661 46.0918 122.583 46.0352 122.583 45.9221C122.583 45.8296 122.65 45.7679 122.784 45.7371L122.969 45.7062C123.185 45.6651 123.324 45.6034 123.385 45.5212C123.457 45.4286 123.493 45.2744 123.493 45.0585V39.8769C123.493 39.6918 123.462 39.5684 123.401 39.5068C123.349 39.4348 123.252 39.3885 123.108 39.368L122.784 39.3217C122.65 39.3114 122.583 39.2549 122.583 39.1521C122.583 39.0698 122.666 39.0133 122.83 38.9824C123.149 38.931 123.39 38.8488 123.555 38.7357C123.73 38.6226 123.91 38.4838 124.095 38.3193C124.187 38.2268 124.264 38.1805 124.326 38.1805C124.419 38.1805 124.465 38.2422 124.465 38.3656V39.1983C124.465 39.2703 124.496 39.3166 124.557 39.3371C124.619 39.3474 124.676 39.3063 124.727 39.2137Z" fill="white"/>
<path d="M128.711 36.7617C128.495 36.7617 128.31 36.6846 128.156 36.5304C128.012 36.3762 127.94 36.1808 127.94 35.9444C127.94 35.7079 128.012 35.5177 128.156 35.3738C128.31 35.2196 128.495 35.1425 128.711 35.1425C128.927 35.1425 129.107 35.2196 129.251 35.3738C129.395 35.5177 129.467 35.7079 129.467 35.9444C129.467 36.1808 129.395 36.3762 129.251 36.5304C129.107 36.6846 128.927 36.7617 128.711 36.7617ZM127.416 46.0918C127.262 46.0918 127.185 46.0352 127.185 45.9221C127.185 45.8296 127.251 45.7679 127.385 45.7371L127.57 45.7062C127.827 45.6651 127.992 45.6034 128.064 45.5212C128.136 45.4286 128.172 45.2744 128.172 45.0585V39.8769C128.172 39.6918 128.141 39.5684 128.079 39.5068C128.028 39.4348 127.93 39.3885 127.786 39.368L127.462 39.3217C127.329 39.3114 127.262 39.2549 127.262 39.1521C127.262 39.0698 127.344 39.0133 127.508 38.9824C127.827 38.931 128.084 38.8488 128.279 38.7357C128.475 38.6226 128.665 38.4838 128.85 38.3193C128.943 38.2268 129.02 38.1805 129.081 38.1805C129.174 38.1805 129.22 38.2422 129.22 38.3656V45.0585C129.22 45.2744 129.251 45.4286 129.313 45.5212C129.374 45.6137 129.493 45.6702 129.667 45.6908L130.053 45.7371C130.166 45.7576 130.223 45.8142 130.223 45.9067C130.223 46.0301 130.146 46.0918 129.991 46.0918H127.416Z" fill="white"/>
<path d="M130.495 49.2532C130.341 49.2532 130.264 49.1966 130.264 49.0835C130.264 48.9704 130.33 48.9088 130.464 48.8985L130.68 48.8676C130.896 48.8368 131.035 48.7751 131.096 48.6826C131.168 48.59 131.204 48.4358 131.204 48.2199V39.8769C131.204 39.6918 131.173 39.5684 131.112 39.5068C131.06 39.4348 130.963 39.3885 130.819 39.368L130.495 39.3217C130.361 39.3114 130.294 39.2549 130.294 39.1521C130.294 39.0698 130.377 39.0133 130.541 38.9824C130.86 38.931 131.101 38.8488 131.266 38.7357C131.441 38.6226 131.621 38.4838 131.806 38.3193C131.898 38.2268 131.975 38.1805 132.037 38.1805C132.13 38.1805 132.176 38.2422 132.176 38.3656V38.8436C132.176 38.9156 132.207 38.967 132.268 38.9978C132.33 39.0184 132.402 38.9876 132.484 38.9053L132.654 38.7357C132.86 38.5301 133.07 38.381 133.286 38.2885C133.502 38.1856 133.749 38.1342 134.026 38.1342C134.499 38.1342 134.916 38.2936 135.276 38.6123C135.646 38.9207 135.934 39.3525 136.139 39.9077C136.355 40.4629 136.463 41.1157 136.463 41.8663C136.463 42.7196 136.329 43.4752 136.062 44.1332C135.795 44.7912 135.425 45.3053 134.952 45.6754C134.489 46.0455 133.954 46.2306 133.348 46.2306C133.039 46.2306 132.767 46.174 132.531 46.0609C132.345 45.9787 132.253 46.0352 132.253 46.2306V48.2199C132.253 48.4358 132.284 48.5798 132.345 48.6517C132.417 48.734 132.561 48.7905 132.777 48.8214L133.348 48.8985C133.461 48.919 133.518 48.9756 133.518 49.0681C133.518 49.1915 133.44 49.2532 133.286 49.2532H130.495ZM133.394 45.845C133.97 45.845 134.433 45.5057 134.782 44.8272C135.142 44.1486 135.322 43.2336 135.322 42.0822C135.322 41.0232 135.168 40.2161 134.859 39.661C134.551 39.1058 134.114 38.8282 133.548 38.8282C133.199 38.8282 132.896 38.9721 132.638 39.26C132.381 39.5479 132.253 39.9488 132.253 40.4629V44.3491C132.253 44.8118 132.356 45.1767 132.561 45.4441C132.777 45.7114 133.055 45.845 133.394 45.845Z" fill="white"/>
<path d="M137.836 46.2306C137.61 46.2306 137.414 46.1586 137.25 46.0147C137.096 45.8604 137.018 45.66 137.018 45.4132C137.018 45.1767 137.096 44.9865 137.25 44.8426C137.414 44.6884 137.61 44.6113 137.836 44.6113C138.041 44.6113 138.226 44.6884 138.391 44.8426C138.555 44.9865 138.638 45.1767 138.638 45.4132C138.638 45.66 138.555 45.8604 138.391 46.0147C138.226 46.1586 138.041 46.2306 137.836 46.2306Z" fill="white"/>
<path d="M140.393 46.0918C140.239 46.0918 140.161 46.0352 140.161 45.9221C140.161 45.809 140.228 45.7473 140.362 45.7371L141.056 45.6291C141.262 45.5983 141.4 45.5469 141.472 45.4749C141.544 45.3926 141.58 45.2436 141.58 45.0277V35.7747C141.58 35.6308 141.549 35.528 141.488 35.4663C141.426 35.4046 141.297 35.3738 141.102 35.3738C140.722 35.3738 140.347 35.5383 139.976 35.8673C139.606 36.1963 139.365 36.7257 139.252 37.4557L139.174 37.9646C139.154 38.0983 139.082 38.1651 138.959 38.1651C138.804 38.1651 138.738 38.0777 138.758 37.9029L138.897 35.1116C138.917 34.8751 139.01 34.7569 139.174 34.7569C139.246 34.7569 139.313 34.7775 139.375 34.8186C139.437 34.8494 139.539 34.8854 139.683 34.9266C139.838 34.9677 140.079 34.9882 140.408 34.9882H143.847C144.176 34.9882 144.413 34.9677 144.557 34.9266C144.711 34.8854 144.819 34.8494 144.88 34.8186C144.952 34.7775 145.019 34.7569 145.081 34.7569C145.245 34.7569 145.338 34.8751 145.359 35.1116L145.497 37.9029C145.518 38.0777 145.451 38.1651 145.297 38.1651C145.173 38.1651 145.101 38.0983 145.081 37.9646L145.004 37.4557C144.901 36.7257 144.665 36.1963 144.294 35.8673C143.924 35.5383 143.544 35.3738 143.153 35.3738C142.958 35.3738 142.829 35.4046 142.768 35.4663C142.706 35.528 142.675 35.6308 142.675 35.7747V45.0277C142.675 45.2436 142.711 45.3926 142.783 45.4749C142.865 45.5469 143.004 45.5983 143.199 45.6291L143.893 45.7371C144.027 45.7473 144.094 45.809 144.094 45.9221C144.094 46.0352 144.017 46.0918 143.863 46.0918H140.393Z" fill="white"/>
<path d="M147.01 39.2137C147.431 38.4941 147.94 38.1342 148.537 38.1342C148.876 38.1342 149.128 38.237 149.292 38.4427C149.457 38.638 149.539 38.8591 149.539 39.1058C149.539 39.3011 149.488 39.4605 149.385 39.5839C149.292 39.7072 149.143 39.7689 148.938 39.7689C148.773 39.7689 148.65 39.7329 148.568 39.661C148.496 39.5787 148.434 39.4862 148.382 39.3834C148.341 39.2806 148.29 39.1932 148.228 39.1212C148.167 39.039 148.064 38.9978 147.92 38.9978C147.735 38.9978 147.56 39.1109 147.395 39.3371C147.231 39.553 147.092 39.846 146.979 40.2161C146.876 40.5863 146.825 41.0078 146.825 41.4807V45.0585C146.825 45.2744 146.856 45.4286 146.917 45.5212C146.989 45.6137 147.133 45.6702 147.349 45.6908L147.766 45.7371C147.879 45.7576 147.935 45.8142 147.935 45.9067C147.935 46.0301 147.858 46.0918 147.704 46.0918H145.098C144.943 46.0918 144.866 46.0352 144.866 45.9221C144.866 45.8296 144.933 45.7679 145.067 45.7371L145.252 45.7062C145.468 45.6651 145.607 45.6034 145.668 45.5212C145.74 45.4286 145.776 45.2744 145.776 45.0585V39.8769C145.776 39.6918 145.745 39.5684 145.684 39.5068C145.632 39.4348 145.535 39.3885 145.391 39.368L145.067 39.3217C144.933 39.3114 144.866 39.2549 144.866 39.1521C144.866 39.0698 144.949 39.0133 145.113 38.9824C145.432 38.931 145.673 38.8488 145.838 38.7357C146.013 38.6226 146.193 38.4838 146.378 38.3193C146.47 38.2268 146.547 38.1805 146.609 38.1805C146.702 38.1805 146.748 38.2422 146.748 38.3656V39.1983C146.748 39.2703 146.779 39.3166 146.84 39.3371C146.902 39.3474 146.959 39.3063 147.01 39.2137Z" fill="white"/>
<path d="M150.816 46.2306C150.384 46.2306 150.029 46.0969 149.752 45.8296C149.474 45.552 149.335 45.187 149.335 44.7347C149.335 44.2926 149.474 43.8762 149.752 43.4855C150.029 43.0846 150.41 42.7247 150.893 42.406C151.376 42.0873 151.926 41.8303 152.543 41.6349C152.677 41.5938 152.743 41.5064 152.743 41.3728V39.9694C152.743 39.4759 152.666 39.1264 152.512 38.9207C152.358 38.7048 152.147 38.5969 151.88 38.5969C151.623 38.5969 151.386 38.7151 151.17 38.9516C150.965 39.1778 150.816 39.5633 150.723 40.1082C150.672 40.4372 150.559 40.6788 150.384 40.833C150.219 40.9769 150.05 41.0489 149.875 41.0489C149.587 41.0489 149.443 40.905 149.443 40.6171C149.443 40.319 149.525 40.0259 149.69 39.7381C149.865 39.4399 150.091 39.1726 150.368 38.9362C150.646 38.6894 150.949 38.4941 151.278 38.3501C151.607 38.2062 151.936 38.1342 152.265 38.1342C153.283 38.1342 153.792 38.7254 153.792 39.9077V44.6267C153.792 45.0585 153.9 45.2744 154.116 45.2744C154.25 45.2744 154.373 45.187 154.486 45.0122C154.599 44.8272 154.656 44.5188 154.656 44.087C154.656 43.9225 154.722 43.8402 154.856 43.8402C154.98 43.8402 155.041 43.9276 155.041 44.1024C155.041 44.8529 154.908 45.3978 154.64 45.7371C154.383 46.0661 154.09 46.2306 153.761 46.2306C153.514 46.2306 153.319 46.1329 153.175 45.9375C153.031 45.7319 152.934 45.4903 152.882 45.2127C152.872 45.1099 152.826 45.0585 152.743 45.0585C152.671 45.0482 152.599 45.0945 152.527 45.1973C152.281 45.5366 152.029 45.7936 151.772 45.9684C151.515 46.1432 151.196 46.2306 150.816 46.2306ZM151.232 45.5212C151.499 45.5212 151.746 45.4286 151.972 45.2436C152.198 45.0482 152.384 44.7912 152.527 44.4725C152.671 44.1538 152.743 43.7939 152.743 43.393V42.2672C152.743 42.0719 152.635 42.0153 152.42 42.0976C151.792 42.3238 151.304 42.6373 150.954 43.0383C150.615 43.429 150.446 43.9019 150.446 44.4571C150.446 45.1665 150.708 45.5212 151.232 45.5212Z" fill="white"/>
<path d="M157.608 46.2306C157.155 46.2306 156.749 46.0763 156.389 45.7679C156.04 45.4492 155.767 45.0122 155.572 44.4571C155.377 43.8916 155.279 43.2388 155.279 42.4985C155.279 41.6349 155.413 40.8793 155.68 40.2316C155.947 39.5736 156.317 39.0595 156.79 38.6894C157.263 38.3193 157.798 38.1342 158.394 38.1342C158.538 38.1342 158.682 38.1497 158.826 38.1805C158.97 38.2011 159.109 38.2422 159.242 38.3039C159.407 38.3861 159.489 38.3501 159.489 38.1959V36.222C159.489 36.0369 159.458 35.9084 159.396 35.8364C159.345 35.7645 159.247 35.7233 159.103 35.7131L158.702 35.6668C158.589 35.6462 158.533 35.5845 158.533 35.4817C158.533 35.3789 158.589 35.3172 158.702 35.2967C159.031 35.235 159.294 35.163 159.489 35.0808C159.695 34.9985 159.864 34.9163 159.998 34.834C160.162 34.7312 160.286 34.6798 160.368 34.6798C160.481 34.6798 160.538 34.7621 160.538 34.9266V44.6267C160.538 45.0585 160.646 45.2744 160.862 45.2744C160.995 45.2744 161.119 45.187 161.232 45.0122C161.345 44.8272 161.401 44.5188 161.401 44.087C161.401 43.9225 161.468 43.8402 161.602 43.8402C161.725 43.8402 161.787 43.9276 161.787 44.1024C161.787 44.8529 161.658 45.3978 161.401 45.7371C161.144 46.0661 160.851 46.2306 160.522 46.2306C160.224 46.2306 159.998 46.1329 159.844 45.9375C159.689 45.7319 159.587 45.4903 159.535 45.2127C159.525 45.1305 159.489 45.0894 159.427 45.0894C159.366 45.0791 159.309 45.1151 159.258 45.1973C158.97 45.5983 158.708 45.8707 158.471 46.0147C158.235 46.1586 157.947 46.2306 157.608 46.2306ZM157.947 45.5212C158.214 45.5212 158.461 45.4338 158.687 45.259C158.924 45.0739 159.114 44.8272 159.258 44.5188C159.412 44.2103 159.489 43.8659 159.489 43.4855V40.0157C159.489 39.553 159.381 39.188 159.165 38.9207C158.96 38.6534 158.687 38.5198 158.348 38.5198C157.772 38.5198 157.304 38.859 156.944 39.5376C156.595 40.2059 156.42 41.1209 156.42 42.2826C156.42 43.3416 156.554 44.1486 156.821 44.7038C157.099 45.2487 157.474 45.5212 157.947 45.5212Z" fill="white"/>
<path d="M164.517 46.2306C164.023 46.2306 163.581 46.0661 163.191 45.7371C162.8 45.4081 162.486 44.9454 162.25 44.3491C162.024 43.7425 161.911 43.0434 161.911 42.2518C161.911 41.4396 162.029 40.7251 162.265 40.1082C162.502 39.4913 162.826 39.0081 163.237 38.6586C163.648 38.309 164.106 38.1342 164.609 38.1342C165.216 38.1342 165.704 38.3861 166.074 38.8899C166.455 39.3834 166.645 40.1904 166.645 41.3111C166.645 41.6504 166.517 41.82 166.26 41.82H163.329C163.124 41.82 163.021 41.9382 163.021 42.1747C163.021 43.2645 163.18 44.0818 163.499 44.6267C163.818 45.1716 164.224 45.4441 164.717 45.4441C165.108 45.4441 165.427 45.3053 165.674 45.0277C165.92 44.7501 166.121 44.2823 166.275 43.6243C166.306 43.5112 166.373 43.4547 166.475 43.4547C166.599 43.4547 166.645 43.5575 166.614 43.7631C166.45 44.6781 166.188 45.3207 165.828 45.6908C165.468 46.0506 165.031 46.2306 164.517 46.2306ZM163.283 41.4344H164.841C165.334 41.4344 165.581 41.1774 165.581 40.6634C165.581 39.9951 165.499 39.4708 165.334 39.0904C165.17 38.71 164.923 38.5198 164.594 38.5198C164.193 38.5198 163.854 38.7511 163.576 39.2137C163.309 39.6764 163.134 40.3344 163.052 41.1877C163.031 41.3522 163.108 41.4344 163.283 41.4344Z" fill="white"/>
<g clip-path="url(#clip0_489_5876)">
<circle cx="105.211" cy="40.99" r="7.59591" fill="#E6FF55" stroke="black" stroke-width="0.460358"/>
<path d="M107.987 40.784L107.912 40.8246C107.44 41.0795 106.868 41.0636 106.41 40.7829C106.01 40.537 105.637 40.2474 105.3 39.9195L103.733 38.3941C103.621 38.2853 103.687 38.0954 103.842 38.0788L105.975 37.85C106.433 37.8008 106.895 37.7977 107.355 37.8408L107.389 37.844C107.911 37.893 108.375 38.2006 108.624 38.6634C109.032 39.4249 108.747 40.3735 107.987 40.784Z" fill="#0DA7FA"/>
<path d="M107.335 38.3156C107.9 38.4993 108.209 39.1064 108.026 39.6716C107.842 40.2369 107.235 40.5462 106.669 40.3626C106.104 40.1789 105.795 39.5718 105.979 39.0065C106.162 38.4413 106.769 38.1319 107.335 38.3156Z" fill="url(#paint0_radial_489_5876)" fill-opacity="0.3"/>
<path d="M107.987 40.784L107.912 40.8246C107.44 41.0795 106.868 41.0636 106.41 40.7829C106.01 40.537 105.637 40.2474 105.3 39.9195L103.733 38.3941C103.621 38.2853 103.687 38.0954 103.842 38.0788L105.975 37.85C106.433 37.8008 106.895 37.7977 107.355 37.8408L107.389 37.844C107.911 37.893 108.375 38.2006 108.624 38.6634C109.032 39.4249 108.747 40.3735 107.987 40.784Z" fill="url(#paint1_linear_489_5876)"/>
<path opacity="0.8" d="M107.987 40.784L107.912 40.8246C107.44 41.0795 106.868 41.0636 106.41 40.7829C106.01 40.537 105.637 40.2474 105.3 39.9195L103.733 38.3941C103.621 38.2853 103.687 38.0954 103.842 38.0788L105.975 37.85C106.433 37.8008 106.895 37.7977 107.355 37.8408L107.389 37.844C107.911 37.893 108.375 38.2006 108.624 38.6634C109.032 39.4249 108.747 40.3735 107.987 40.784Z" fill="url(#paint2_linear_489_5876)"/>
<path opacity="0.7" d="M107.987 40.784L107.912 40.8246C107.44 41.0795 106.868 41.0636 106.41 40.7829C106.01 40.537 105.637 40.2474 105.3 39.9195L103.733 38.3941C103.621 38.2853 103.687 38.0954 103.842 38.0788L105.975 37.85C106.433 37.8008 106.895 37.7977 107.355 37.8408L107.389 37.844C107.911 37.893 108.375 38.2006 108.624 38.6634C109.032 39.4249 108.747 40.3735 107.987 40.784Z" fill="url(#paint3_linear_489_5876)"/>
<path d="M107.332 39.9427L107.322 39.9516C106.998 40.2352 106.527 40.2749 106.16 40.0496L105.862 39.8666L103.803 38.3666C103.71 38.2987 103.76 38.1513 103.876 38.1545L106.395 38.2258L106.789 38.2625C107.192 38.3002 107.528 38.5865 107.63 38.9785C107.721 39.3303 107.606 39.7034 107.332 39.9427Z" fill="url(#paint4_linear_489_5876)"/>
<path d="M102.967 43.7771L102.892 43.7504C102.421 43.5824 102.075 43.1763 101.985 42.6848C101.905 42.254 101.874 41.8158 101.891 41.3781L101.97 39.342C101.975 39.1968 102.148 39.1238 102.256 39.2209L103.744 40.5548C104.064 40.8416 104.354 41.1597 104.61 41.5044L104.629 41.53C104.921 41.9226 104.997 42.4354 104.832 42.8958C104.559 43.6534 103.725 44.0476 102.967 43.7771Z" fill="#0DA7FA"/>
<path d="M104.269 41.7864C104.495 42.2922 104.267 42.8848 103.761 43.11C103.255 43.3353 102.663 43.1078 102.438 42.6019C102.212 42.0961 102.44 41.5035 102.946 41.2783C103.452 41.053 104.044 41.2805 104.269 41.7864Z" fill="url(#paint5_radial_489_5876)" fill-opacity="0.3"/>
<path d="M102.967 43.7771L102.892 43.7504C102.421 43.5824 102.075 43.1763 101.985 42.6848C101.905 42.254 101.874 41.8158 101.891 41.3781L101.97 39.342C101.975 39.1968 102.148 39.1238 102.256 39.2209L103.744 40.5548C104.064 40.8416 104.354 41.1597 104.61 41.5044L104.629 41.53C104.921 41.9226 104.997 42.4354 104.832 42.8958C104.559 43.6534 103.725 44.0476 102.967 43.7771Z" fill="url(#paint6_linear_489_5876)"/>
<path opacity="0.8" d="M102.967 43.7771L102.892 43.7504C102.421 43.5824 102.075 43.1763 101.985 42.6848C101.905 42.254 101.874 41.8158 101.891 41.3781L101.97 39.342C101.975 39.1968 102.148 39.1238 102.256 39.2209L103.744 40.5548C104.064 40.8416 104.354 41.1597 104.61 41.5044L104.629 41.53C104.921 41.9226 104.997 42.4354 104.832 42.8958C104.559 43.6534 103.725 44.0476 102.967 43.7771Z" fill="url(#paint7_linear_489_5876)"/>
<path opacity="0.7" d="M102.967 43.7771L102.892 43.7504C102.421 43.5824 102.075 43.1763 101.985 42.6848C101.905 42.254 101.874 41.8158 101.891 41.3781L101.97 39.342C101.975 39.1968 102.148 39.1238 102.256 39.2209L103.744 40.5548C104.064 40.8416 104.354 41.1597 104.61 41.5044L104.629 41.53C104.921 41.9226 104.997 42.4354 104.832 42.8958C104.559 43.6534 103.725 44.0476 102.967 43.7771Z" fill="url(#paint8_linear_489_5876)"/>
<path d="M103.141 42.799L103.128 42.7975C102.73 42.75 102.409 42.4487 102.336 42.0542L102.277 41.7339L102.032 39.3733C102.021 39.2665 102.155 39.2095 102.224 39.2912L103.746 41.0801L103.965 41.3754C104.191 41.678 104.202 42.0893 103.994 42.4039C103.807 42.6863 103.477 42.8392 103.141 42.799Z" fill="url(#paint9_linear_489_5876)"/>
<path d="M106.96 44.5325L106.901 44.5214C106.53 44.4517 106.224 44.1897 106.098 43.8338C105.988 43.522 105.912 43.1988 105.873 42.8704L105.692 41.3425C105.679 41.2335 105.799 41.1587 105.891 41.2183L107.158 42.0374C107.431 42.2136 107.685 42.4165 107.917 42.6433L107.934 42.6601C108.198 42.9184 108.315 43.2919 108.246 43.6549C108.133 44.2522 107.557 44.6447 106.96 44.5325Z" fill="#0DA7FA"/>
<g opacity="0.4" filter="url(#filter0_f_489_5876)">
<path d="M107.644 42.9277C107.853 43.2497 107.761 43.6804 107.439 43.8895C107.117 44.0987 106.686 44.0072 106.477 43.6851C106.268 43.363 106.36 42.9324 106.682 42.7232C107.004 42.5141 107.435 42.6056 107.644 42.9277Z" fill="url(#paint10_radial_489_5876)" fill-opacity="0.3"/>
</g>
<path d="M106.96 44.5325L106.901 44.5214C106.53 44.4517 106.224 44.1897 106.098 43.8338C105.988 43.522 105.912 43.1988 105.873 42.8704L105.692 41.3425C105.679 41.2335 105.799 41.1587 105.891 41.2183L107.158 42.0374C107.431 42.2136 107.685 42.4165 107.917 42.6433L107.934 42.6601C108.198 42.9184 108.315 43.2919 108.246 43.6549C108.133 44.2522 107.557 44.6447 106.96 44.5325Z" fill="url(#paint11_linear_489_5876)"/>
<path opacity="0.8" d="M106.96 44.5325L106.901 44.5214C106.53 44.4517 106.224 44.1897 106.098 43.8338C105.988 43.522 105.912 43.1988 105.873 42.8704L105.692 41.3425C105.679 41.2335 105.799 41.1587 105.891 41.2183L107.158 42.0374C107.431 42.2136 107.685 42.4165 107.917 42.6433L107.934 42.6601C108.198 42.9184 108.315 43.2919 108.246 43.6549C108.133 44.2522 107.557 44.6447 106.96 44.5325Z" fill="url(#paint12_linear_489_5876)"/>
<path opacity="0.7" d="M106.96 44.5325L106.901 44.5214C106.53 44.4517 106.224 44.1897 106.098 43.8338C105.988 43.522 105.912 43.1988 105.873 42.8704L105.692 41.3425C105.679 41.2335 105.799 41.1587 105.891 41.2183L107.158 42.0374C107.431 42.2136 107.685 42.4165 107.917 42.6433L107.934 42.6601C108.198 42.9184 108.315 43.2919 108.246 43.6549C108.133 44.2522 107.557 44.6447 106.96 44.5325Z" fill="url(#paint13_linear_489_5876)"/>
<path d="M106.974 43.7826L106.965 43.783C106.662 43.7945 106.387 43.6078 106.286 43.3221L106.204 43.0902L105.743 41.3585C105.722 41.2802 105.814 41.2219 105.876 41.2746L107.222 42.4291L107.421 42.6234C107.625 42.8225 107.682 43.1279 107.564 43.3871C107.458 43.6198 107.23 43.7728 106.974 43.7826Z" fill="url(#paint14_linear_489_5876)"/>
</g>
<defs>
<filter id="filter0_f_489_5876" x="106.082" y="42.3281" width="1.95633" height="1.95657" filterUnits="userSpaceOnUse" color-interpolation-filters="sRGB">
<feFlood flood-opacity="0" result="BackgroundImageFix"/>
<feBlend mode="normal" in="SourceGraphic" in2="BackgroundImageFix" result="shape"/>
<feGaussianBlur stdDeviation="0.141425" result="effect1_foregroundBlur_489_5876"/>
</filter>
<radialGradient id="paint0_radial_489_5876" cx="0" cy="0" r="1" gradientUnits="userSpaceOnUse" gradientTransform="translate(107.039 39.351) rotate(25.6873) scale(1.1325)">
<stop stop-color="#DAF5FF"/>
<stop offset="1" stop-color="#A2E6FF" stop-opacity="0"/>
</radialGradient>
<linearGradient id="paint1_linear_489_5876" x1="105.177" y1="40.023" x2="105.515" y2="39.6311" gradientUnits="userSpaceOnUse">
<stop stop-color="#056496"/>
<stop offset="1" stop-color="#056496" stop-opacity="0"/>
</linearGradient>
<linearGradient id="paint2_linear_489_5876" x1="105.642" y1="37.8845" x2="105.666" y2="38.1651" gradientUnits="userSpaceOnUse">
<stop stop-color="#056496"/>
<stop offset="1" stop-color="#056496" stop-opacity="0"/>
</linearGradient>
<linearGradient id="paint3_linear_489_5876" x1="107.602" y1="39.5516" x2="108.765" y2="39.9296" gradientUnits="userSpaceOnUse">
<stop stop-color="#43DAFB" stop-opacity="0"/>
<stop offset="1" stop-color="#43DAFB"/>
</linearGradient>
<linearGradient id="paint4_linear_489_5876" x1="105.045" y1="38.7207" x2="107.206" y2="39.4555" gradientUnits="userSpaceOnUse">
<stop stop-color="#EDFFFC"/>
<stop offset="1" stop-color="#EDFFFC" stop-opacity="0"/>
</linearGradient>
<radialGradient id="paint5_radial_489_5876" cx="0" cy="0" r="1" gradientUnits="userSpaceOnUse" gradientTransform="translate(103.368 42.2269) rotate(73.6873) scale(1.05506)">
<stop stop-color="#DAF5FF"/>
<stop offset="1" stop-color="#A2E6FF" stop-opacity="0"/>
</radialGradient>
<linearGradient id="paint6_linear_489_5876" x1="101.742" y1="41.3569" x2="102.224" y2="41.3471" gradientUnits="userSpaceOnUse">
<stop stop-color="#056496"/>
<stop offset="1" stop-color="#056496" stop-opacity="0"/>
</linearGradient>
<linearGradient id="paint7_linear_489_5876" x1="103.513" y1="40.3464" x2="103.333" y2="40.5374" gradientUnits="userSpaceOnUse">
<stop stop-color="#056496"/>
<stop offset="1" stop-color="#056496" stop-opacity="0"/>
</linearGradient>
<linearGradient id="paint8_linear_489_5876" x1="103.58" y1="42.7423" x2="104.043" y2="43.7831" gradientUnits="userSpaceOnUse">
<stop stop-color="#43DAFB" stop-opacity="0"/>
<stop offset="1" stop-color="#43DAFB"/>
</linearGradient>
<linearGradient id="paint9_linear_489_5876" x1="102.561" y1="40.4539" x2="103.399" y2="42.4078" gradientUnits="userSpaceOnUse">
<stop stop-color="#EDFFFC"/>
<stop offset="1" stop-color="#EDFFFC" stop-opacity="0"/>
</linearGradient>
<radialGradient id="paint10_radial_489_5876" cx="0" cy="0" r="1" gradientUnits="userSpaceOnUse" gradientTransform="translate(107.074 43.3272) rotate(64.6873) scale(0.731744)">
<stop stop-color="#DAF5FF"/>
<stop offset="1" stop-color="#A2E6FF" stop-opacity="0"/>
</radialGradient>
<linearGradient id="paint11_linear_489_5876" x1="105.76" y1="42.8722" x2="106.119" y2="42.8078" gradientUnits="userSpaceOnUse">
<stop stop-color="#056496"/>
<stop offset="1" stop-color="#056496" stop-opacity="0"/>
</linearGradient>
<linearGradient id="paint12_linear_489_5876" x1="106.961" y1="41.9092" x2="106.85" y2="42.073" gradientUnits="userSpaceOnUse">
<stop stop-color="#056496"/>
<stop offset="1" stop-color="#056496" stop-opacity="0"/>
</linearGradient>
<linearGradient id="paint13_linear_489_5876" x1="107.295" y1="43.6883" x2="107.763" y2="44.4098" gradientUnits="userSpaceOnUse">
<stop stop-color="#43DAFB" stop-opacity="0"/>
<stop offset="1" stop-color="#43DAFB"/>
</linearGradient>
<linearGradient id="paint14_linear_489_5876" x1="106.265" y1="42.102" x2="107.129" y2="43.4454" gradientUnits="userSpaceOnUse">
<stop stop-color="#EDFFFC"/>
<stop offset="1" stop-color="#EDFFFC" stop-opacity="0"/>
</linearGradient>
<clipPath id="clip0_489_5876">
<rect x="97.3848" y="33.1639" width="15.6522" height="15.6522" rx="7.82609" fill="white"/>
</clipPath>
</defs>
</svg>
